<svg width="48" height="48" viewBox="0 0 48 48" fill="none" xmlns="http://www.w3.org/2000/svg">
<rect width="48" height="48" rx="9" fill="#E0E0E0"/>
<path d="M14.2132 29.7627C14.1774 32.1054 15.1509 34.3012 16.4011 36.2336C17.0288 37.2039 17.7274 38.1269 18.4369 39.0383C19.1103 39.9034 19.8492 40.7491 20.806 41.3103C21.9027 41.9535 23.1725 42.0692 24.4169 41.9679C25.029 41.9181 25.6428 41.8442 26.2498 41.7515C26.8643 41.6577 27.4724 41.4941 28.017 41.1856C29.05 40.6004 29.7749 39.5612 30.4471 38.6134C31.0995 37.6935 31.6835 36.7251 32.1948 35.72C33.3618 33.4257 34.1727 30.9533 34.5542 28.4069C34.6174 27.9854 34.449 27.5065 33.9827 27.4002C33.5935 27.3116 33.044 27.5191 32.9761 27.9718C32.8167 29.0362 32.5852 30.0887 32.2801 31.1208C32.1294 31.6305 31.9613 32.135 31.7761 32.6332C31.6858 32.8762 31.5914 33.1178 31.493 33.3576C31.4734 33.4056 31.4536 33.4536 31.4335 33.5014C31.4984 33.3464 31.3985 33.5824 31.3942 33.5922C31.3375 33.7231 31.2795 33.8533 31.2204 33.9831C30.7746 34.9623 30.2611 35.9107 29.6842 36.819C29.4061 37.2566 29.1134 37.6849 28.8063 38.1027C28.7296 38.2072 28.6516 38.3106 28.5734 38.4141C28.4196 38.6176 28.6684 38.2966 28.512 38.4936C28.4803 38.5336 28.4489 38.5738 28.4169 38.6136C28.2412 38.8329 28.0586 39.0472 27.86 39.2463C27.7703 39.3361 27.6778 39.4233 27.5813 39.5058C27.543 39.5385 27.5042 39.5716 27.4642 39.6024C27.5972 39.4997 27.3957 39.6459 27.3849 39.6531C27.2786 39.7237 27.1683 39.7882 27.0541 39.8454C27.0074 39.8689 26.9598 39.8918 26.9118 39.9125C27.0518 39.8521 26.8437 39.9337 26.8147 39.9436C26.5657 40.0286 26.3086 40.088 26.0499 40.1346C25.9195 40.1581 25.7885 40.1779 25.6574 40.1962C25.8323 40.1719 25.5729 40.2061 25.5598 40.2077C25.4803 40.2175 25.4007 40.227 25.3212 40.2365C24.7609 40.3031 24.1984 40.3654 23.6336 40.3673C23.497 40.3678 23.3606 40.3648 23.2243 40.3572C23.1564 40.3535 23.0886 40.3488 23.021 40.3427C23.0371 40.3441 22.7732 40.3135 22.8877 40.3295C23.002 40.3455 22.7405 40.3031 22.7562 40.3061C22.7031 40.2961 22.6501 40.2853 22.5974 40.2734C22.4387 40.2377 22.2821 40.193 22.1288 40.1388C22.1437 40.1441 21.9005 40.049 22.0154 40.0975C22.1253 40.1438 21.9111 40.0474 21.9161 40.0498C21.8087 39.9975 21.7037 39.9402 21.6011 39.879C21.4987 39.8178 21.3987 39.7524 21.3012 39.6836C21.2621 39.656 21.2236 39.6276 21.1852 39.5991C21.3276 39.7047 21.0936 39.5223 21.0699 39.5021C20.6991 39.1859 20.367 38.8268 20.0543 38.4538C19.897 38.2661 19.745 38.074 19.5941 37.8811C19.4495 37.6962 19.6518 37.9572 19.5659 37.8447C19.5273 37.7943 19.4885 37.7439 19.4498 37.6935C19.3557 37.5706 19.2619 37.4473 19.1686 37.3236C18.8549 36.9076 18.5468 36.4872 18.2504 36.0586C17.9094 35.5656 17.5835 35.0618 17.284 34.5423C17.1293 34.274 16.9816 34.0015 16.8431 33.7245C16.7744 33.5869 16.7078 33.4483 16.6438 33.3085C16.6225 33.2622 16.6015 33.2156 16.5808 33.1689C16.5601 33.1222 16.5398 33.0755 16.5197 33.0287C16.5477 33.0952 16.5506 33.1017 16.5284 33.0481C16.3176 32.5055 16.1292 31.96 16.0054 31.3901C15.976 31.255 15.9499 31.1194 15.9271 30.9831C15.9237 30.9628 15.8873 30.7154 15.9122 30.902C15.9022 30.827 15.8939 30.7519 15.8864 30.6766C15.8561 30.3728 15.8451 30.068 15.8498 29.7627C15.8563 29.3345 15.4687 28.9248 15.0315 28.9444C14.5825 28.9645 14.2202 29.3039 14.2132 29.7627Z" fill="#303030"/>
<path d="M34.31 30.9389C35.5692 30.0832 36.3531 28.7389 36.721 27.2801C36.9216 26.4847 37.0112 25.6595 37.062 24.8422C37.1133 24.0186 37.2323 22.9872 36.6279 22.3266C35.8991 21.53 34.5125 21.8904 33.6613 22.254C33.2661 22.4227 33.1489 23.0341 33.3677 23.3735C33.6325 23.7842 34.0645 23.8477 34.4873 23.6671C34.364 23.7198 34.6473 23.6168 34.675 23.6085C34.78 23.5773 34.8862 23.5562 34.9926 23.5312C35.1746 23.4886 34.9275 23.5256 35.0987 23.5155C35.2077 23.509 35.3159 23.5012 35.4252 23.5035C35.4745 23.5041 35.5236 23.5065 35.5726 23.511C35.4773 23.4983 35.4767 23.5026 35.5708 23.5241C35.483 23.4851 35.4663 23.4698 35.4014 23.3973C35.4444 23.4789 35.4445 23.4745 35.4015 23.3842C35.4155 23.4272 35.4272 23.4707 35.4367 23.5149C35.4505 23.5951 35.4533 23.6029 35.4452 23.5382C35.4514 23.5968 35.4559 23.6555 35.4588 23.7143C35.4793 24.1172 35.4465 24.5248 35.42 24.9269C35.4051 25.1529 35.3868 25.3786 35.363 25.6038C35.3541 25.6882 35.3444 25.7724 35.3341 25.8566C35.3509 25.7191 35.3083 26.0298 35.3037 26.0584C35.2363 26.4756 35.1442 26.8894 35.0159 27.2923C34.9637 27.4565 34.905 27.6186 34.8403 27.7783C34.909 27.6089 34.7905 27.8842 34.7768 27.9129C34.7456 27.9781 34.7132 28.0427 34.6797 28.1066C34.5903 28.2766 34.4925 28.4423 34.3856 28.6021C34.3457 28.6618 34.3035 28.7198 34.2621 28.7785C34.206 28.8536 34.205 28.8553 34.2592 28.7835C34.2294 28.8207 34.1989 28.8574 34.1679 28.8937C34.0596 29.0203 33.9444 29.1412 33.8224 29.2546C33.7526 29.3195 33.6804 29.3813 33.6068 29.4417C33.7445 29.3289 33.5107 29.5076 33.484 29.5257C33.1306 29.7658 32.9397 30.2564 33.1904 30.6453C33.4172 30.9971 33.9313 31.1961 34.31 30.9389Z" fill="#303030"/>
<path d="M14.8683 29.6547C14.7898 29.6396 14.7148 29.6122 14.6374 29.5955C14.5815 29.5755 14.5941 29.5818 14.6754 29.6145C14.6343 29.5951 14.5941 29.5742 14.5547 29.5515C14.4954 29.5175 14.4381 29.4799 14.3829 29.4394C14.5285 29.5462 14.3564 29.4066 14.3385 29.3893C14.2886 29.3411 14.2436 29.289 14.1966 29.238C14.1372 29.1647 14.1376 29.1663 14.1966 29.238C14.1756 29.2087 14.156 29.181 14.1367 29.1504C14.0443 29.0077 13.96 28.8541 13.8956 28.6963C13.953 28.8371 13.8638 28.6005 13.8622 28.5959C13.8356 28.5208 13.8109 28.445 13.7874 28.3689C13.731 28.187 13.682 28.0027 13.635 27.8182C13.546 27.4688 13.4678 27.1167 13.4006 26.7625C13.3656 26.5782 13.3335 26.3935 13.3045 26.2082C13.2911 26.1228 13.2783 26.0372 13.2662 25.9515C13.2856 26.088 13.2501 25.8245 13.2503 25.8259C13.209 25.4867 13.1816 25.1518 13.1901 24.8102C13.1957 24.5868 13.1489 24.9467 13.1983 24.7307C13.215 24.658 13.2341 24.587 13.2553 24.5155C13.3037 24.3517 13.2309 24.5982 13.3069 24.4231C13.3394 24.3739 13.328 24.3864 13.2728 24.4607C13.3005 24.4282 13.3299 24.3973 13.3609 24.368C13.473 24.2409 13.2578 24.4584 13.398 24.3418C13.5183 24.2418 13.2813 24.3582 13.4299 24.321C13.531 24.2956 13.5854 24.2914 13.4513 24.3086C13.5443 24.3121 13.5314 24.3077 13.4126 24.2955C13.4988 24.3213 13.4911 24.3143 13.3897 24.2745C13.7779 24.4527 14.2889 24.398 14.5093 23.981C14.6994 23.6211 14.6311 23.052 14.2157 22.8614C13.4884 22.5278 12.6511 22.6894 12.1156 23.3035C11.6045 23.8896 11.5027 24.6671 11.5695 25.4174C11.6378 26.1855 11.7606 26.9533 11.9268 27.7061C12.0824 28.4105 12.26 29.1317 12.6031 29.7717C12.9771 30.4694 13.6377 31.0796 14.4332 31.2328C14.8522 31.3135 15.3364 31.1153 15.4398 30.6613C15.5319 30.2571 15.3177 29.7413 14.8683 29.6547Z" fill="#303030"/>
<path d="M15.1661 26.6788C15.0965 25.7634 15.0803 24.8448 15.1224 23.9276C15.1434 23.4692 15.1789 23.0115 15.2283 22.5553C15.2395 22.4523 15.2513 22.3494 15.2639 22.2465C15.2712 22.1878 15.2785 22.129 15.2863 22.0703C15.2812 22.1082 15.2682 22.1952 15.2932 22.0238C15.3244 21.8095 15.3575 21.595 15.4114 21.385C15.4349 21.2934 15.4696 21.2051 15.4943 21.1141C15.518 21.0264 15.496 21.1045 15.4874 21.1238C15.5088 21.0761 15.5329 21.0289 15.5577 20.9828C15.6074 20.8904 15.6627 20.8008 15.7218 20.714C15.744 20.6813 15.7673 20.6494 15.7903 20.6173C15.8239 20.5719 15.8213 20.5747 15.7827 20.6256C15.7994 20.6051 15.816 20.5846 15.8328 20.5641C16.1031 20.2469 16.3901 19.9445 16.6812 19.6464C17.2705 19.0431 17.8875 18.466 18.5397 17.9309C18.6132 17.8705 18.6872 17.8106 18.7616 17.7514C18.8042 17.7175 18.8469 17.6839 18.8898 17.6504C18.8616 17.6724 18.7878 17.7275 18.9179 17.6289C19.091 17.4977 19.2659 17.369 19.4437 17.2444C19.7746 17.0126 20.1162 16.7939 20.4777 16.6125C20.5782 16.5622 20.6801 16.5148 20.7828 16.4693C20.8219 16.4521 20.8611 16.4352 20.9004 16.4183C21.0309 16.3622 20.8099 16.4562 20.9411 16.4013C21.1901 16.2973 21.4404 16.1955 21.6844 16.0802C22.0763 15.895 22.4503 15.6748 22.8395 15.4843C22.9153 15.4472 22.9917 15.4112 23.0686 15.3763C23.112 15.3566 23.3125 15.2732 23.1718 15.3296C23.362 15.2535 23.5529 15.1804 23.7472 15.1153C24.1012 14.9967 24.4623 14.8996 24.8278 14.8239C24.9931 14.7897 25.1592 14.7617 25.3257 14.7343C25.485 14.7082 25.355 14.7288 25.3229 14.7331C25.3707 14.7267 25.4186 14.721 25.4665 14.7155C25.5623 14.7045 25.6582 14.6948 25.7543 14.6866C26.1268 14.6548 26.5011 14.6441 26.8747 14.6545C27.0797 14.6602 27.2846 14.6721 27.4888 14.6905C27.5969 14.7002 27.7046 14.7138 27.8125 14.7249C27.9093 14.7349 27.7861 14.7211 27.7744 14.7193C27.846 14.73 27.9176 14.7404 27.9889 14.7521C28.3933 14.8183 28.7936 14.9097 29.1865 15.0261C29.3828 15.0843 29.5772 15.1488 29.7694 15.2194C29.8711 15.2568 29.9718 15.2967 30.0726 15.3367C30.1009 15.348 30.2151 15.4009 30.0768 15.3383C30.1207 15.3582 30.165 15.3771 30.2089 15.3969C30.6044 15.5761 30.9854 15.7842 31.352 16.0168C31.714 16.2465 32.2703 16.1042 32.4715 15.7232C32.6851 15.3191 32.5644 14.8488 32.178 14.6036C29.4313 12.8612 25.7893 12.51 22.7702 13.7378C22.3337 13.9153 21.9138 14.1167 21.4983 14.3383C21.3116 14.4378 21.1251 14.538 20.9347 14.6305C20.8326 14.6801 20.7292 14.7267 20.6253 14.7725C20.4953 14.8299 20.7158 14.7349 20.5849 14.7903C20.5193 14.818 20.4535 14.8451 20.3878 14.8727C19.527 15.2344 18.7679 15.698 18.0271 16.2653C17.2904 16.8294 16.5902 17.4347 15.9277 18.0845C15.2942 18.7058 14.5679 19.3674 14.1446 20.1568C13.8876 20.636 13.777 21.144 13.7027 21.6767C13.6229 22.2478 13.557 22.8203 13.5167 23.3956C13.4402 24.4889 13.4464 25.5862 13.5296 26.6788C13.5619 27.1046 13.8827 27.5179 14.3479 27.4971C14.7634 27.4784 15.2009 27.1359 15.1661 26.6788Z" fill="#303030"/>
<path d="M33.7907 10.9473C32.7073 9.83516 31.4554 8.86871 30.0925 8.12302C28.6589 7.3386 27.1258 6.83949 25.5336 6.49513C24.6502 6.30406 23.7605 6.10072 22.8581 6.02507C21.9568 5.94952 21.0447 6.05403 20.1604 6.22932C19.3095 6.39807 18.4779 6.65001 17.6504 6.90746C16.8366 7.16067 16.0283 7.42021 15.247 7.7632C14.371 8.14771 13.6011 8.69519 12.8772 9.31609C12.1926 9.90326 11.4374 10.5297 11.0039 11.3349C10.801 11.7116 10.8974 12.2431 11.2974 12.4544C11.6782 12.6557 12.2003 12.5634 12.417 12.1609C12.4587 12.0834 12.5023 12.0074 12.5506 11.9338C12.5736 11.8986 12.7154 11.7162 12.6233 11.8269C12.7446 11.6812 12.8737 11.5432 13.0088 11.4103C13.2713 11.152 13.5452 10.904 13.8208 10.6599C13.9623 10.5345 14.1054 10.4111 14.2513 10.2909C14.3241 10.2308 14.3974 10.1714 14.4717 10.1132C14.4579 10.1241 14.3919 10.1741 14.4663 10.118C14.5201 10.0775 14.5741 10.0374 14.6287 9.99804C14.9358 9.7766 15.2574 9.57639 15.5942 9.40337C15.7635 9.31645 15.9359 9.23594 16.1104 9.15993C16.0019 9.20716 16.1853 9.12956 16.2164 9.1172C16.3176 9.07683 16.4194 9.03796 16.5216 9.00018C16.8929 8.86298 17.2696 8.74124 17.6472 8.62254C18.4275 8.37715 19.2088 8.12971 20.0044 7.93791C20.396 7.84353 20.791 7.76316 21.1896 7.70479C21.0615 7.72356 21.3218 7.68929 21.3554 7.68569C21.4549 7.6751 21.5546 7.66592 21.6544 7.65869C21.8682 7.64314 22.0826 7.63537 22.2971 7.63673C22.4843 7.63792 22.6715 7.64601 22.8581 7.66165C22.9607 7.67024 23.0631 7.68092 23.1652 7.69379C23.3107 7.71206 23.0649 7.67806 23.2099 7.70065C23.2681 7.70965 23.3262 7.71865 23.3843 7.72834C23.8034 7.79812 24.219 7.88777 24.6347 7.97482C25.4305 8.14144 26.2264 8.31537 27.0018 8.56235C27.3378 8.66937 27.6694 8.78952 27.9961 8.92217C28.0311 8.93636 28.066 8.95077 28.1009 8.96513C27.9691 8.91081 28.0897 8.96063 28.1139 8.97132C28.1945 9.00696 28.2751 9.04242 28.3553 9.07906C28.527 9.15757 28.6971 9.23958 28.8656 9.32491C29.5734 9.68364 30.2513 10.1014 30.8915 10.5703C30.9728 10.6299 31.0532 10.6906 31.1336 10.7515C31.2372 10.83 31.0468 10.6803 31.1473 10.7627C31.1862 10.7947 31.2263 10.8253 31.2656 10.857C31.4226 10.9834 31.5772 11.113 31.729 11.2457C32.0423 11.5194 32.3432 11.8066 32.6335 12.1045C32.9327 12.4117 33.4944 12.4273 33.7907 12.1045C34.0938 11.7744 34.11 11.275 33.7907 10.9473Z" fill="#303030"/>
<path d="M10.9894 19.1169C11.1854 18.3973 11.4213 17.6892 11.7007 16.9976C11.7006 16.998 11.7981 16.7605 11.7451 16.8869C11.7825 16.7978 11.8214 16.7093 11.8606 16.6209C11.9333 16.4568 12.0084 16.2938 12.0858 16.1318C12.2465 15.7954 12.4176 15.464 12.5983 15.1379C12.7683 14.8312 12.9452 14.5276 13.1359 14.2332C13.2123 14.1152 13.2911 13.9986 13.3731 13.8843C13.392 13.858 13.5734 13.6267 13.4573 13.7692C13.5016 13.7149 13.5456 13.6604 13.5913 13.6072C13.697 13.4842 13.8079 13.3656 13.9254 13.2538C13.9752 13.2064 14.026 13.1601 14.0782 13.1153C14.0988 13.0977 14.2758 12.971 14.1261 13.0731C14.2575 12.9834 14.386 12.8949 14.5276 12.8213C14.5513 12.8089 14.755 12.7207 14.5786 12.7902C14.6639 12.7566 14.7502 12.7277 14.8381 12.7015C15.2479 12.5794 15.5477 12.1216 15.4096 11.6949C15.2754 11.2802 14.8424 10.9925 14.403 11.1234C12.9156 11.5667 11.9944 12.8806 11.2661 14.1673C10.4639 15.5848 9.83914 17.1105 9.41131 18.6818C9.29893 19.0944 9.5511 19.5901 9.98284 19.6884C10.4143 19.7867 10.8691 19.5589 10.9894 19.1169Z" fill="#303030"/>
<path d="M11.9442 25.5836C11.9451 24.7367 11.9461 23.8893 11.9899 23.0433C12.0111 22.6358 12.0421 22.2287 12.0879 21.8232C12.0945 21.7654 12.1013 21.7075 12.1085 21.6497C12.1215 21.5482 12.1232 21.5341 12.1136 21.6073C12.1257 21.5207 12.1388 21.4343 12.1525 21.348C12.1848 21.1446 12.2216 20.942 12.2636 20.7405C12.3392 20.3775 12.4312 20.0178 12.5424 19.6641C12.5961 19.4935 12.654 19.3241 12.7168 19.1566C12.7436 19.0848 12.7722 19.0138 12.7999 18.9424C12.8365 18.8534 12.8384 18.8479 12.8056 18.9261C12.8258 18.8793 12.8464 18.8327 12.8674 18.7863C13.0139 18.4623 13.1803 18.1473 13.368 17.8452C13.4616 17.6945 13.5607 17.5471 13.6652 17.4037C13.6951 17.3627 13.7253 17.3221 13.7561 17.2817C13.706 17.3471 13.7105 17.3426 13.7697 17.268C13.8359 17.1907 13.9005 17.1123 13.968 17.0361C14.2517 16.7158 14.3071 16.1902 13.968 15.8788C13.6577 15.5939 13.1139 15.5366 12.8108 15.8788C10.4444 18.5507 10.3112 22.1976 10.3076 25.5836C10.3071 26.0116 10.6843 26.4217 11.1259 26.4019C11.5696 26.382 11.9437 26.0424 11.9442 25.5836Z" fill="#303030"/>
<path d="M32.7419 12.4641C32.869 12.5582 32.7792 12.4906 32.7529 12.4701C32.7917 12.5004 32.8298 12.5315 32.8677 12.5627C32.9432 12.6251 33.0173 12.6893 33.0899 12.755C33.235 12.8863 33.3742 13.024 33.508 13.1667C33.6336 13.3007 33.7543 13.4393 33.8708 13.5813C33.8974 13.6137 34.0356 13.7897 33.9486 13.6759C34.016 13.7641 34.0817 13.8535 34.1463 13.9437C34.6017 14.5807 34.9908 15.262 35.3664 15.9482C35.5711 16.3221 35.7764 16.6961 35.9705 17.0755C36.0654 17.2608 36.157 17.4478 36.2428 17.6374C36.2496 17.6526 36.319 17.8089 36.285 17.7303C36.2549 17.6609 36.308 17.7865 36.3079 17.7861C36.3539 17.9013 36.3978 18.0173 36.4388 18.1344C36.5835 18.5481 36.6943 18.973 36.7775 19.4031C36.7958 19.4972 36.8127 19.5916 36.8284 19.6862C36.8328 19.7128 36.879 20.024 36.8591 19.8758C36.8884 20.094 36.9098 20.3135 36.9272 20.5329C37.0062 21.527 36.9858 22.5255 36.9525 23.5212C36.9382 23.9494 37.3391 24.3588 37.7708 24.3395C38.2264 24.319 38.5737 23.9799 38.5891 23.5212C38.6509 21.6703 38.6642 19.7593 38.1073 17.9728C37.8195 17.0497 37.3638 16.197 36.9042 15.3508C36.5128 14.6306 36.1136 13.9122 35.6448 13.2388C35.0596 12.3982 34.3927 11.6609 33.5679 11.051C33.2225 10.7955 32.6396 10.9825 32.4484 11.3445C32.2225 11.772 32.3732 12.1914 32.7419 12.4641Z" fill="#303030"/>
<path d="M31.0254 15.782C31.2414 16.127 31.4422 16.4811 31.6247 16.845C31.7159 17.0268 31.8027 17.2109 31.8851 17.3968C31.9057 17.4433 31.9261 17.4899 31.9461 17.5367C31.9132 17.4583 31.9151 17.4635 31.952 17.5523C31.9896 17.6468 32.0277 17.7411 32.0639 17.8362C32.3492 18.5849 32.5651 19.36 32.7096 20.1481C32.744 20.3358 32.7747 20.5241 32.8007 20.7132C32.7758 20.5324 32.8151 20.8433 32.8185 20.8743C32.8296 20.9754 32.8395 21.0767 32.8483 21.1781C32.8832 21.5835 32.8994 21.9906 32.8965 22.3975C32.8936 22.8043 32.8716 23.211 32.8302 23.6157C32.8198 23.7169 32.808 23.8179 32.7955 23.9189C32.818 23.7377 32.7759 24.0481 32.771 24.079C32.7393 24.2801 32.7021 24.4801 32.6612 24.6795C32.5754 25.0976 32.7823 25.5834 33.2327 25.686C33.6413 25.7791 34.1473 25.5629 34.2393 25.1146C34.7876 22.4426 34.5558 19.6094 33.5155 17.082C33.2119 16.3442 32.8621 15.6327 32.4385 14.956C32.2116 14.5934 31.6982 14.4179 31.319 14.6624C30.9557 14.8966 30.7824 15.3938 31.0254 15.782Z" fill="#303030"/>
</svg>
