<svg width="16" height="16" viewBox="0 0 16 16" fill="none" xmlns="http://www.w3.org/2000/svg">
<path d="M4.19416 10.2411C4.18025 11.1521 4.55884 12.0061 5.04499 12.7575C5.2891 13.1349 5.56079 13.4938 5.83668 13.8483C6.09856 14.1847 6.38591 14.5135 6.758 14.7318C7.1845 14.9819 7.67831 15.0269 8.16223 14.9875C8.40026 14.9681 8.63898 14.9394 8.87501 14.9034C9.11399 14.8669 9.35046 14.8033 9.56225 14.6833C9.96397 14.4557 10.2459 14.0516 10.5073 13.683C10.761 13.3253 10.9881 12.9487 11.1869 12.5578C11.6408 11.6656 11.9561 10.7041 12.1045 9.71385C12.129 9.54993 12.0635 9.3637 11.8822 9.32239C11.7309 9.28793 11.5172 9.3686 11.4908 9.54464C11.4288 9.95858 11.3388 10.3679 11.2201 10.7693C11.1615 10.9675 11.0961 11.1637 11.0241 11.3574C10.989 11.4519 10.9523 11.5459 10.914 11.6391C10.9064 11.6578 10.8987 11.6764 10.8909 11.695C10.9161 11.6348 10.8772 11.7265 10.8756 11.7303C10.8535 11.7812 10.831 11.8319 10.808 11.8824C10.6346 12.2632 10.435 12.632 10.2106 12.9852C10.1025 13.1554 9.98861 13.3219 9.86921 13.4844C9.83935 13.525 9.80901 13.5653 9.77862 13.6055C9.71882 13.6847 9.81557 13.5598 9.75474 13.6364C9.74242 13.652 9.7302 13.6676 9.71777 13.6831C9.64944 13.7684 9.57841 13.8517 9.50117 13.9291C9.46633 13.9641 9.43035 13.998 9.39282 14.03C9.37793 14.0428 9.36282 14.0556 9.34728 14.0676C9.39901 14.0277 9.32062 14.0845 9.31645 14.0873C9.27508 14.1148 9.23219 14.1399 9.1878 14.1621C9.16962 14.1713 9.15111 14.1802 9.13244 14.1882C9.1869 14.1647 9.10598 14.1965 9.09468 14.2003C8.99786 14.2334 8.89786 14.2565 8.79725 14.2746C8.74657 14.2837 8.69564 14.2914 8.64463 14.2985C8.71266 14.2891 8.61177 14.3024 8.60669 14.303C8.57577 14.3068 8.54482 14.3105 8.51388 14.3142C8.29601 14.3401 8.07727 14.3643 7.85761 14.3651C7.8045 14.3653 7.75144 14.3641 7.69843 14.3612C7.67205 14.3597 7.64569 14.3579 7.61938 14.3555C7.62562 14.3561 7.52302 14.3441 7.56753 14.3504C7.61201 14.3566 7.5103 14.3401 7.5164 14.3413C7.49576 14.3374 7.47516 14.3332 7.45467 14.3286C7.39295 14.3147 7.33203 14.2973 7.2724 14.2762C7.27822 14.2783 7.18365 14.2413 7.22831 14.2601C7.27106 14.2782 7.18775 14.2407 7.1897 14.2416C7.14794 14.2212 7.10709 14.199 7.06722 14.1752C7.02737 14.1514 6.98848 14.126 6.95059 14.0992C6.93539 14.0884 6.9204 14.0774 6.90546 14.0663C6.96083 14.1074 6.86984 14.0364 6.86063 14.0286C6.71642 13.9056 6.58729 13.766 6.4657 13.621C6.40449 13.5479 6.34539 13.4733 6.28672 13.3982C6.23048 13.3263 6.30917 13.4278 6.27574 13.3841C6.26075 13.3645 6.24563 13.3449 6.2306 13.3253C6.19399 13.2775 6.15752 13.2295 6.12124 13.1814C5.99924 13.0196 5.87943 12.8562 5.76417 12.6895C5.63156 12.4978 5.50482 12.3018 5.38837 12.0998C5.32821 11.9955 5.27075 11.8895 5.2169 11.7818C5.19017 11.7283 5.16429 11.6744 5.13938 11.62C5.13112 11.602 5.12295 11.5839 5.11489 11.5657C5.10685 11.5476 5.09893 11.5294 5.09112 11.5112C5.10201 11.5371 5.10314 11.5396 5.09453 11.5188C5.01253 11.3078 4.93925 11.0956 4.89111 10.874C4.87969 10.8214 4.86953 10.7687 4.86067 10.7157C4.85936 10.7078 4.84518 10.6116 4.85489 10.6842C4.85098 10.655 4.84778 10.6258 4.84485 10.5965C4.83306 10.4784 4.82878 10.3598 4.8306 10.2411C4.83315 10.0746 4.68242 9.91528 4.51238 9.9229C4.33778 9.93072 4.19688 10.0627 4.19416 10.2411Z" fill="#303030"/>
<path d="M12.0095 10.6985C12.4992 10.3657 12.804 9.84297 12.9471 9.27567C13.0251 8.96634 13.0599 8.64545 13.0797 8.32761C13.0996 8.00734 13.1459 7.60622 12.9109 7.34931C12.6275 7.03954 12.0882 7.17968 11.7572 7.32108C11.6035 7.38672 11.558 7.62448 11.6431 7.75646C11.746 7.91615 11.914 7.94086 12.0784 7.87063C12.0305 7.89112 12.1407 7.85106 12.1515 7.84784C12.1923 7.83571 12.2336 7.82749 12.2749 7.81778C12.3457 7.8012 12.2496 7.81561 12.3162 7.81167C12.3586 7.80916 12.4007 7.8061 12.4432 7.80702C12.4623 7.80723 12.4814 7.80818 12.5005 7.80993C12.4634 7.80497 12.4632 7.80666 12.4998 7.81501C12.4657 7.79984 12.4592 7.79392 12.4339 7.76572C12.4506 7.79745 12.4507 7.79574 12.434 7.76061C12.4394 7.77732 12.4439 7.79425 12.4476 7.81144C12.453 7.84264 12.4541 7.84566 12.4509 7.82051C12.4534 7.84328 12.4551 7.8661 12.4563 7.88898C12.4642 8.04566 12.4515 8.20419 12.4412 8.36056C12.4354 8.44842 12.4282 8.5362 12.419 8.62378C12.4155 8.65659 12.4117 8.68935 12.4077 8.72209C12.4143 8.66863 12.3977 8.78945 12.3959 8.80057C12.3697 8.96282 12.3339 9.12374 12.284 9.28043C12.2637 9.34428 12.2409 9.40729 12.2157 9.46941C12.2424 9.40352 12.1964 9.5106 12.191 9.52176C12.1789 9.54709 12.1663 9.57221 12.1533 9.59707C12.1185 9.66321 12.0805 9.72765 12.0389 9.78977C12.0234 9.81298 12.007 9.83554 11.9909 9.85838C11.9691 9.88759 11.9687 9.88822 11.9897 9.86033C11.9781 9.87479 11.9663 9.88907 11.9542 9.90318C11.9121 9.95242 11.8673 9.99941 11.8199 10.0435C11.7927 10.0688 11.7647 10.0928 11.736 10.1163C11.7896 10.0724 11.6986 10.1419 11.6883 10.149C11.5508 10.2423 11.4766 10.4331 11.5741 10.5843C11.6623 10.7211 11.8622 10.7985 12.0095 10.6985Z" fill="#303030"/>
<path d="M4.44891 10.1991C4.41838 10.1932 4.38925 10.1826 4.35912 10.1761C4.33738 10.1683 4.34231 10.1708 4.37392 10.1835C4.35794 10.1759 4.34229 10.1678 4.32698 10.159C4.30389 10.1458 4.28162 10.1311 4.26017 10.1154C4.31676 10.1569 4.24985 10.1026 4.2429 10.0959C4.22347 10.0772 4.20599 10.0569 4.18773 10.0371C4.1646 10.0086 4.16476 10.0092 4.18773 10.0371C4.17954 10.0257 4.17194 10.0149 4.16443 10.003C4.12847 9.94749 4.09569 9.88779 4.07064 9.8264C4.09299 9.88116 4.0583 9.78914 4.05766 9.78737C4.04732 9.75816 4.03774 9.72868 4.02856 9.69908C4.00666 9.62833 3.98758 9.55668 3.9693 9.48494C3.93469 9.34906 3.9043 9.21212 3.87815 9.07436C3.86456 9.00273 3.85208 8.9309 3.8408 8.85884C3.83558 8.82562 3.83061 8.79233 3.82589 8.75901C3.83343 8.81208 3.81965 8.7096 3.81972 8.71014C3.80365 8.57823 3.79299 8.44802 3.79632 8.31515C3.79849 8.22827 3.78026 8.36825 3.7995 8.28426C3.80599 8.25596 3.81341 8.22838 3.82165 8.20057C3.8405 8.13686 3.81218 8.23273 3.84173 8.16461C3.85436 8.14548 3.84994 8.15036 3.82847 8.17925C3.83924 8.16661 3.85066 8.1546 3.86272 8.1432C3.90631 8.09379 3.82264 8.17835 3.87716 8.13302C3.92392 8.09413 3.83176 8.1394 3.88956 8.1249C3.92886 8.11504 3.95002 8.1134 3.89788 8.12011C3.93404 8.12147 3.92903 8.11976 3.88284 8.11499C3.91634 8.12503 3.91337 8.12231 3.87391 8.10685C4.02489 8.17612 4.22361 8.15485 4.3093 7.9927C4.38325 7.85274 4.35667 7.63142 4.19513 7.55732C3.91229 7.42758 3.5867 7.49043 3.37846 7.72922C3.17968 7.95717 3.1401 8.25951 3.16607 8.5513C3.19264 8.84998 3.24041 9.14856 3.30504 9.44134C3.36552 9.71526 3.43459 9.99573 3.56801 10.2446C3.71347 10.5159 3.97037 10.7532 4.27973 10.8128C4.44266 10.8442 4.63095 10.7671 4.67117 10.5906C4.70697 10.4334 4.6237 10.2328 4.44891 10.1991Z" fill="#303030"/>
<path d="M4.56475 9.04183C4.53767 8.68583 4.53137 8.32861 4.54774 7.97194C4.55591 7.79369 4.5697 7.61568 4.58894 7.43827C4.59327 7.39821 4.59788 7.35819 4.60278 7.31818C4.60559 7.29534 4.60844 7.27248 4.61148 7.24966C4.6095 7.26442 4.60444 7.29822 4.61415 7.23159C4.62631 7.14825 4.63918 7.06482 4.66015 6.98315C4.66929 6.94752 4.68277 6.91319 4.69236 6.8778C4.70158 6.8437 4.69305 6.87409 4.68967 6.8816C4.69801 6.86304 4.70737 6.84469 4.71702 6.82676C4.73636 6.7908 4.75787 6.75597 4.78084 6.72223C4.78948 6.70951 4.79852 6.6971 4.80748 6.68462C4.82053 6.66696 4.81954 6.66804 4.80451 6.68786C4.811 6.67987 4.81749 6.67189 4.82399 6.66392C4.92911 6.54056 5.04072 6.42298 5.15395 6.30706C5.38312 6.07242 5.62304 5.84801 5.87666 5.63991C5.90527 5.61643 5.93403 5.59315 5.96299 5.57011C5.97954 5.55694 5.99615 5.54384 6.01281 5.53081C6.00185 5.53939 5.97315 5.56083 6.02377 5.52247C6.09107 5.47146 6.15908 5.42142 6.22822 5.37296C6.35691 5.2828 6.48976 5.19776 6.63035 5.12722C6.6694 5.10763 6.70903 5.08923 6.74899 5.07153C6.76418 5.06482 6.77943 5.05826 6.79471 5.0517C6.84548 5.02988 6.75953 5.06641 6.81055 5.04509C6.90737 5.00464 7.00471 4.96504 7.09961 4.9202C7.25201 4.8482 7.39745 4.76254 7.5488 4.68845C7.57829 4.67403 7.608 4.66006 7.6379 4.64648C7.65476 4.63881 7.73275 4.60639 7.67801 4.62829C7.75198 4.5987 7.82623 4.57027 7.90181 4.54495C8.03946 4.49886 8.1799 4.4611 8.32203 4.43165C8.38631 4.41834 8.45091 4.40745 8.51565 4.3968C8.5776 4.38664 8.52704 4.39468 8.51456 4.39634C8.53316 4.39387 8.55179 4.39164 8.5704 4.3895C8.60765 4.38521 8.64496 4.38144 8.68233 4.37826C8.82719 4.3659 8.97272 4.36173 9.11804 4.36578C9.19776 4.36799 9.27742 4.37262 9.35683 4.37976C9.39889 4.38354 9.44075 4.38883 9.48274 4.39316C9.52038 4.39705 9.47247 4.39166 9.46789 4.39099C9.49573 4.39512 9.52358 4.39917 9.55133 4.40372C9.70859 4.42947 9.86426 4.46501 10.017 4.51028C10.0934 4.53291 10.169 4.55798 10.2437 4.58545C10.2833 4.6 10.3224 4.61551 10.3616 4.63108C10.3726 4.63545 10.4171 4.65605 10.3633 4.6317C10.3803 4.63943 10.3976 4.64676 10.4146 4.65449C10.5684 4.72418 10.7166 4.80511 10.8592 4.89554C11 4.98487 11.2163 4.92956 11.2945 4.78139C11.3776 4.62422 11.3307 4.44134 11.1804 4.34599C10.1122 3.66838 8.69594 3.5318 7.52184 4.00928C7.35212 4.07832 7.18882 4.15664 7.02724 4.2428C6.95461 4.28152 6.88209 4.32045 6.80807 4.35643C6.76835 4.37573 6.72815 4.39383 6.68773 4.41167C6.63719 4.43398 6.72291 4.39703 6.67202 4.41858C6.64652 4.42937 6.62091 4.43989 6.59536 4.45062C6.26063 4.59129 5.96543 4.77158 5.67733 4.99217C5.39085 5.21157 5.11854 5.44694 4.86091 5.69965C4.61455 5.94126 4.3321 6.19856 4.16747 6.50554C4.06753 6.69189 4.02454 6.88945 3.99563 7.09661C3.96462 7.31869 3.93897 7.54134 3.92331 7.76506C3.89357 8.19022 3.89598 8.61692 3.92831 9.04183C3.9409 9.20741 4.06566 9.36815 4.24653 9.36005C4.40812 9.3528 4.57828 9.21957 4.56475 9.04183Z" fill="#303030"/>
<path d="M11.8076 2.9241C11.3862 2.49161 10.8994 2.11577 10.3694 1.82579C9.81187 1.52074 9.21569 1.32664 8.59648 1.19273C8.25295 1.11842 7.90697 1.03934 7.55603 1.00993C7.20555 0.980544 6.85082 1.02119 6.50695 1.08936C6.17602 1.15498 5.85264 1.25296 5.53083 1.35307C5.21436 1.45154 4.90005 1.55247 4.59619 1.68586C4.25555 1.83539 3.95614 2.04829 3.67461 2.28975C3.40838 2.51809 3.11472 2.76169 2.94612 3.07483C2.86723 3.22134 2.90471 3.42802 3.06027 3.51021C3.20835 3.58846 3.41139 3.55257 3.49564 3.39604C3.51187 3.36591 3.52885 3.33636 3.5476 3.30773C3.55657 3.29403 3.61171 3.2231 3.57587 3.26615C3.62304 3.20949 3.67326 3.15584 3.7258 3.10414C3.82788 3.00369 3.9344 2.90727 4.04157 2.81232C4.09658 2.76356 4.15225 2.71558 4.20897 2.66884C4.23729 2.64548 4.2658 2.62238 4.29471 2.59975C4.28932 2.60397 4.26365 2.6234 4.29259 2.60161C4.3135 2.58585 4.33452 2.57024 4.35575 2.55495C4.47518 2.46884 4.60024 2.39098 4.73124 2.32369C4.79705 2.28989 4.86411 2.25858 4.93194 2.22902C4.88978 2.24739 4.9611 2.21721 4.97317 2.21241C5.01252 2.19671 5.05212 2.18159 5.09187 2.1669C5.23625 2.11355 5.38277 2.0662 5.52959 2.02004C5.83303 1.92461 6.13686 1.82839 6.44626 1.7538C6.59855 1.7171 6.75216 1.68584 6.90718 1.66314C6.85735 1.67044 6.95858 1.65711 6.97168 1.65572C7.01036 1.6516 7.04911 1.64803 7.08793 1.64522C7.17109 1.63917 7.25447 1.63615 7.33786 1.63668C7.41068 1.63714 7.48346 1.64028 7.55603 1.64636C7.59592 1.64971 7.63575 1.65386 7.67547 1.65886C7.73206 1.66597 7.63647 1.65275 7.69285 1.66153C7.71546 1.66503 7.73807 1.66853 7.76065 1.6723C7.92363 1.69944 8.08525 1.7343 8.24694 1.76815C8.55641 1.83295 8.86591 1.90059 9.16746 1.99664C9.2981 2.03825 9.42709 2.08498 9.55411 2.13656C9.56772 2.14208 9.58128 2.14768 9.59486 2.15327C9.54363 2.13214 9.59053 2.15152 9.59994 2.15567C9.63126 2.16953 9.66262 2.18332 9.69381 2.19757C9.76057 2.2281 9.82674 2.26 9.89224 2.29318C10.1675 2.43268 10.4311 2.59515 10.6801 2.77751C10.7117 2.80069 10.743 2.82429 10.7743 2.84798C10.8145 2.87849 10.7405 2.82026 10.7796 2.85231C10.7947 2.86475 10.8103 2.87667 10.8256 2.88897C10.8866 2.93814 10.9467 2.98856 11.0058 3.04016C11.1276 3.14659 11.2447 3.25827 11.3575 3.37414C11.4739 3.49357 11.6923 3.49965 11.8076 3.37414C11.9254 3.24573 11.9317 3.05155 11.8076 2.9241Z" fill="#303030"/>
<path d="M2.94049 6.10113C3.01669 5.82127 3.10842 5.5459 3.21711 5.27696C3.21706 5.27712 3.25498 5.18478 3.23437 5.23391C3.2489 5.19926 3.26405 5.16484 3.27927 5.13049C3.30756 5.06667 3.33676 5.00325 3.36685 4.94026C3.42937 4.80946 3.49589 4.68056 3.56617 4.55377C3.63227 4.43449 3.70107 4.31643 3.77522 4.20192C3.80494 4.15603 3.83557 4.1107 3.86748 4.06627C3.87482 4.05604 3.94536 3.96609 3.90021 4.02151C3.91743 4.00037 3.93456 3.97917 3.95232 3.95849C3.99341 3.91065 4.03656 3.86454 4.08225 3.82107C4.1016 3.80263 4.12139 3.78461 4.14168 3.7672C4.14969 3.76034 4.21851 3.71107 4.16028 3.75078C4.21141 3.71591 4.26139 3.68148 4.31644 3.65287C4.32567 3.64806 4.40488 3.61373 4.33626 3.64078C4.36944 3.6277 4.40301 3.61649 4.43717 3.60629C4.59654 3.55879 4.71313 3.38078 4.65942 3.21484C4.60724 3.05358 4.43885 2.94167 4.26798 2.9926C3.68956 3.16499 3.33132 3.67593 3.0481 4.17632C2.73611 4.72755 2.49317 5.32089 2.32679 5.93194C2.28309 6.09239 2.38115 6.28514 2.54905 6.32338C2.71684 6.36159 2.8937 6.273 2.94049 6.10113Z" fill="#303030"/>
<path d="M3.31177 8.61592C3.31213 8.28658 3.31252 7.95705 3.32958 7.62806C3.3378 7.46959 3.34985 7.31127 3.36769 7.15358C3.37024 7.13107 3.37289 7.10857 3.37566 7.08608C3.38072 7.04664 3.38139 7.04114 3.37768 7.06962C3.38238 7.03594 3.38746 7.00234 3.3928 6.96876C3.40537 6.88969 3.41968 6.81089 3.436 6.7325C3.46538 6.59136 3.50117 6.45148 3.54443 6.31394C3.56531 6.24757 3.58783 6.18172 3.61223 6.11655C3.62266 6.08866 3.63378 6.06104 3.64454 6.03327C3.65877 5.99865 3.65952 5.99653 3.64679 6.02692C3.65464 6.00873 3.66265 5.99061 3.67081 5.97256C3.72779 5.84658 3.7925 5.72405 3.86547 5.60657C3.90189 5.54797 3.94043 5.49067 3.98106 5.43489C3.99267 5.41897 4.00445 5.40314 4.01642 5.38746C3.99693 5.4129 3.99868 5.41113 4.02168 5.38212C4.04744 5.35207 4.07256 5.32157 4.09882 5.29193C4.20913 5.16738 4.2307 4.96298 4.09882 4.84189C3.97812 4.7311 3.76665 4.70882 3.64878 4.84189C2.72855 5.88093 2.67673 7.29915 2.67534 8.61592C2.67516 8.78238 2.82184 8.94185 2.99355 8.93414C3.16612 8.92639 3.3116 8.79433 3.31177 8.61592Z" fill="#303030"/>
<path d="M11.3997 3.51396C11.4491 3.55054 11.4142 3.52428 11.404 3.51631C11.419 3.52807 11.4339 3.54016 11.4486 3.5523C11.478 3.57656 11.5068 3.60154 11.535 3.6271C11.5914 3.67816 11.6456 3.73171 11.6976 3.78719C11.7465 3.83928 11.7934 3.89321 11.8387 3.94843C11.849 3.96104 11.9028 4.02947 11.869 3.98522C11.8951 4.0195 11.9207 4.05426 11.9458 4.08935C12.1229 4.33709 12.2743 4.60204 12.4203 4.86888C12.4999 5.01429 12.5797 5.1597 12.6553 5.30727C12.6921 5.37932 12.7278 5.45204 12.7611 5.52579C12.7638 5.53168 12.7908 5.59246 12.7775 5.56189C12.7658 5.53492 12.7865 5.58374 12.7864 5.58362C12.8043 5.62842 12.8214 5.67352 12.8373 5.71906C12.8936 5.87992 12.9367 6.04516 12.9691 6.21242C12.9762 6.24902 12.9828 6.28574 12.9889 6.32251C12.9906 6.33287 13.0085 6.45388 13.0008 6.39626C13.0122 6.4811 13.0205 6.56646 13.0273 6.65178C13.058 7.03838 13.0501 7.42667 13.0371 7.81388C13.0316 7.98041 13.1875 8.13961 13.3553 8.1321C13.5325 8.12416 13.6676 7.99229 13.6736 7.81388C13.6976 7.09412 13.7028 6.35094 13.4862 5.65621C13.3743 5.29722 13.1971 4.96562 13.0183 4.63655C12.8661 4.35646 12.7109 4.07712 12.5286 3.81524C12.301 3.48832 12.0416 3.20161 11.7209 2.96441C11.5866 2.86506 11.3599 2.93781 11.2855 3.07858C11.1977 3.24482 11.2563 3.4079 11.3997 3.51396Z" fill="#303030"/>
<path d="M10.7322 4.80424C10.8162 4.93842 10.8943 5.0761 10.9652 5.21762C11.0007 5.28834 11.0345 5.3599 11.0665 5.43222C11.0745 5.45029 11.0824 5.46843 11.0902 5.4866C11.0774 5.45611 11.0782 5.45814 11.0925 5.49268C11.1071 5.52944 11.1219 5.56609 11.136 5.60307C11.247 5.89426 11.3309 6.19567 11.3871 6.50215C11.4005 6.57512 11.4124 6.64839 11.4225 6.72189C11.4129 6.65159 11.4281 6.77251 11.4295 6.78455C11.4338 6.82388 11.4376 6.86327 11.441 6.9027C11.4546 7.06036 11.461 7.21865 11.4598 7.3769C11.4587 7.5351 11.4501 7.69326 11.434 7.85065C11.43 7.89001 11.4254 7.92929 11.4205 7.96855C11.4293 7.8981 11.4129 8.01878 11.411 8.03082C11.3987 8.10901 11.3842 8.1868 11.3683 8.26434C11.3349 8.42693 11.4154 8.61586 11.5906 8.65577C11.7494 8.69197 11.9462 8.60789 11.982 8.43352C12.1952 7.39445 12.1051 6.29265 11.7005 5.30978C11.5825 5.02285 11.4464 4.7462 11.2817 4.48301C11.1935 4.342 10.9938 4.27376 10.8463 4.36886C10.7051 4.45992 10.6377 4.65328 10.7322 4.80424Z" fill="#303030"/>
</svg>
