<svg width="1600" height="1600" viewBox="0 0 1600 1600" fill="none" xmlns="http://www.w3.org/2000/svg">
<path d="M1007.09 560.601C998.993 555.851 990.664 551.509 982.103 547.63C981.46 547.339 980.813 547.055 980.167 546.771L979.862 546.637C979.466 546.456 978.801 546.158 978.364 545.972C978.862 546.197 979.362 546.417 979.862 546.637C979.924 546.665 979.979 546.691 980.026 546.712C980.417 546.893 980.224 546.814 978.361 545.971C978.261 545.929 978.174 545.892 978.104 545.865C975.15 544.69 972.196 543.521 969.212 542.424C963.575 540.352 957.874 538.461 952.116 536.754C940.594 533.34 928.852 530.66 916.992 528.717C915.256 528.433 913.515 528.174 911.774 527.916C910.572 527.792 909.372 527.657 908.172 527.523L908.13 527.518C906.196 527.302 904.262 527.085 902.323 526.91C896.334 526.372 890.326 526.022 884.314 525.856C873.354 525.55 862.378 525.865 851.452 526.797C848.634 527.037 845.82 527.321 843.011 527.645C842.482 527.706 841.953 527.767 841.424 527.831L841.131 527.866C841.004 527.881 840.877 527.897 840.75 527.912C840.551 527.937 840.353 527.961 840.154 527.986C839.827 528.04 839.408 528.109 838.882 528.195C833.999 528.998 829.127 529.82 824.279 530.824C813.559 533.045 802.967 535.893 792.586 539.369C786.925 541.265 781.364 543.392 775.824 545.607C778.274 544.628 776.9 545.214 775.228 545.927L775.224 545.929L775.218 545.931L775.213 545.933C774.23 546.353 773.147 546.814 772.682 547.026C770.427 548.05 768.186 549.104 765.962 550.191C760.725 552.755 755.582 555.502 750.44 558.249L750.438 558.25L750.429 558.254C744.365 561.493 738.302 564.733 732.084 567.67C725.967 570.56 719.715 573.162 713.467 575.762C712.406 576.204 711.344 576.646 710.283 577.089C709.753 577.31 709.42 577.449 709.228 577.528L709.088 577.588C707.936 578.082 706.786 578.577 705.64 579.083C702.627 580.418 699.638 581.806 696.692 583.284C686.09 588.604 676.07 595.017 666.364 601.817C661.15 605.471 656.02 609.246 650.944 613.093C647.127 615.986 649.291 614.369 650.118 613.722C648.862 614.705 647.608 615.693 646.36 616.686C644.176 618.424 642.007 620.18 639.85 621.95C620.722 637.645 602.627 654.57 585.343 672.266C576.803 681.009 568.386 689.877 560.458 699.181C560.126 699.587 559.796 699.993 559.466 700.399L559.37 700.528L559.212 700.742C559.124 700.865 559.036 700.987 558.948 701.11L558.928 701.138L558.873 701.214L558.871 701.216C558.308 701.999 557.745 702.781 557.203 703.578C555.471 706.124 553.848 708.75 552.39 711.462C551.777 712.6 551.18 713.761 550.631 714.934L550.588 715.097L550.53 715.312C550.189 716.568 549.784 717.807 549.378 719.046L549.377 719.051C548.921 720.443 548.465 721.837 548.1 723.257C546.519 729.417 545.548 735.709 544.631 741.994C544.534 742.659 544.457 743.191 544.396 743.611C544.179 745.248 543.975 746.887 543.774 748.525C543.404 751.542 543.056 754.561 542.73 757.582C541.279 770.962 540.239 784.388 539.623 797.831C538.388 824.732 538.863 851.673 540.906 878.522C541.926 891.927 529.092 901.976 516.906 902.522C503.264 903.133 493.855 891.01 492.906 878.522C491.147 855.409 490.562 832.226 491.214 809.067C490.847 809.151 490.437 809.247 489.996 809.358C489.875 809.388 489.764 809.415 489.66 809.439C489.508 809.587 489.311 809.762 489.061 809.97C488.264 810.633 487.859 810.927 487.699 810.999C487.265 811.418 486.843 811.847 486.432 812.287L486.389 812.353C485.051 815.435 485.285 814.065 485.379 813.514L485.389 813.457C485.44 813.152 485.411 813.249 484.874 815.065C484.253 817.162 483.693 819.242 483.204 821.377C483.117 821.754 483.041 822.071 482.974 822.335C482.981 822.672 482.978 823.121 482.964 823.706C482.713 833.728 483.517 843.548 484.729 853.497C484.724 853.456 485.762 861.185 485.194 857.182C485.55 859.696 485.925 862.206 486.318 864.712C487.169 870.146 488.11 875.564 489.136 880.966C491.108 891.356 493.4 901.684 496.01 911.932C497.389 917.342 498.828 922.746 500.48 928.082C501.172 930.314 501.894 932.538 502.674 934.741C502.679 934.755 502.713 934.846 502.768 934.992C503.15 936.011 504.542 939.728 504.149 938.866C505.966 943.08 508.246 947.174 510.726 951.005C511.22 951.786 511.733 952.555 512.266 953.31L512.484 953.574C512.849 953.97 513.209 954.368 513.57 954.766L513.574 954.771L513.579 954.775C514.389 955.669 515.197 956.562 516.048 957.421C520.159 950.144 527.97 945.369 536.967 944.966C549.791 944.391 561.159 956.408 560.967 968.966C560.83 977.919 561.153 986.858 562.042 995.77C562.197 997.312 562.361 998.854 562.547 1000.39C562.517 1000.03 562.828 1002.08 563.044 1003.51L563.045 1003.51L563.046 1003.52L563.146 1004.18C563.189 1004.47 563.222 1004.68 563.235 1004.76C563.903 1008.76 564.67 1012.73 565.531 1016.7C569.162 1033.41 574.689 1049.41 580.873 1065.33C580.975 1065.57 581.06 1065.78 581.125 1065.94C581.295 1066.33 581.464 1066.72 581.635 1067.11C581.891 1067.7 582.149 1068.28 582.409 1068.87C582.707 1069.54 583.006 1070.21 583.308 1070.88C583.622 1071.57 583.938 1072.27 584.255 1072.96C586.134 1077.06 588.086 1081.13 590.102 1085.16C594.163 1093.29 598.497 1101.28 603.034 1109.15C611.817 1124.38 621.375 1139.16 631.377 1153.62C640.07 1166.19 649.106 1178.52 658.307 1190.72C661.043 1194.35 663.794 1197.97 666.555 1201.57C667.019 1202.18 667.484 1202.78 667.949 1203.39L668.606 1204.24C669.058 1204.83 669.509 1205.42 669.959 1206.01L670.223 1206.35L670.787 1207.07C675.213 1212.73 679.67 1218.37 684.286 1223.87C693.457 1234.81 703.195 1245.34 714.071 1254.62C714.282 1254.8 715.056 1255.41 715.919 1256.1L715.928 1256.1C717.916 1257.68 720.361 1259.62 717.453 1257.46C718.579 1258.3 719.71 1259.13 720.857 1259.94C723.714 1261.96 726.647 1263.88 729.653 1265.67C732.659 1267.47 735.741 1269.15 738.89 1270.68C738.859 1270.67 739.116 1270.78 739.509 1270.96C740.108 1271.23 741.025 1271.64 741.727 1271.97C743.031 1272.46 745.385 1273.38 745.127 1273.29C749.625 1274.88 754.219 1276.19 758.874 1277.24C760.419 1277.59 761.973 1277.9 763.53 1278.2C763.254 1278.15 765.903 1278.57 767.343 1278.82C768.774 1278.97 771.586 1279.3 771.297 1279.27C773.281 1279.45 775.269 1279.59 777.258 1279.7C781.257 1279.92 785.258 1280.01 789.263 1279.99C805.83 1279.94 822.327 1278.11 838.759 1276.16C841.093 1275.88 843.427 1275.6 845.759 1275.31C845.839 1275.3 846.228 1275.25 846.75 1275.18L846.807 1275.18C848.462 1274.96 851.342 1274.59 850.081 1274.77C853.44 1274.29 856.793 1273.77 860.131 1273.17C867.719 1271.8 875.261 1270.06 882.563 1267.57C882.799 1267.49 883.437 1267.25 884.149 1266.98L884.156 1266.97C885.598 1266.43 887.339 1265.77 886.672 1266.09C887.653 1265.64 888.626 1265.17 889.586 1264.69C892.934 1263.01 896.169 1261.12 899.289 1259.04C899.353 1259 899.652 1258.79 900.053 1258.5C901.196 1257.68 903.169 1256.27 902.919 1256.52C903.269 1256.23 903.616 1255.94 903.961 1255.65C904.326 1255.34 904.688 1255.03 905.049 1254.72C907.879 1252.31 910.593 1249.75 913.221 1247.11C919.046 1241.28 924.403 1234.99 929.557 1228.56C930.16 1227.81 930.756 1227.05 931.353 1226.3L931.365 1226.28C931.691 1225.87 932.017 1225.45 932.345 1225.04C932.688 1224.61 932.965 1224.26 933.185 1223.98C933.419 1223.67 933.733 1223.25 934.146 1222.71C936.438 1219.67 938.726 1216.64 940.978 1213.57C949.983 1201.32 958.57 1188.76 966.725 1175.92C983.646 1149.28 998.705 1121.47 1011.78 1092.75C1013.52 1088.94 1015.22 1085.12 1016.88 1081.28L1017.17 1080.6C1017.77 1079.18 1019.06 1076.15 1018.56 1077.35C1018.97 1076.37 1019.37 1075.39 1019.78 1074.4C1022.66 1067.37 1025.43 1060.28 1028.08 1053.16C1033.51 1038.54 1038.44 1023.75 1042.86 1008.8C1051.81 978.526 1058.6 947.657 1063.28 916.438C1065.27 903.161 1081.38 897.077 1092.8 899.675C1105.47 902.562 1110.64 914.83 1109.86 926.45C1111.01 924.456 1112.13 922.437 1113.2 920.397C1114.18 918.522 1115.13 916.628 1116.05 914.717C1116.12 914.557 1116.31 914.133 1116.55 913.588L1116.64 913.402L1117.03 912.503L1117.03 912.499C1117.99 910.32 1119.14 907.704 1118.16 910.147C1119.96 905.663 1121.6 901.119 1123.06 896.516C1126.82 884.698 1129.52 872.562 1131.5 860.325C1131.54 860.052 1131.71 858.906 1131.89 857.621C1132.26 854.952 1132.72 851.684 1132.39 854.406C1132.69 851.937 1132.98 849.466 1133.24 846.992C1133.94 840.386 1134.48 833.766 1134.91 827.14C1134.94 826.774 1134.96 826.409 1134.99 826.044C1135.03 825.342 1135.08 824.64 1135.13 823.937L1135.15 823.609C1135.87 812.964 1136.59 802.212 1136.05 791.573C1135.99 790.272 1135.9 788.974 1135.78 787.677C1135.74 787.639 1135.62 786.988 1135.4 785.725C1135.38 785.615 1135.35 785.505 1135.33 785.395C1135.24 785.394 1135.15 785.393 1135.07 785.392C1132.26 785.331 1129.48 785.5 1126.68 785.671H1126.68L1126.67 785.671C1126.28 785.695 1125.88 785.719 1125.49 785.742C1124.74 785.786 1124.27 785.8 1123.98 785.795C1123.66 785.89 1123.15 786.022 1122.38 786.204C1121.54 786.4 1120.7 786.588 1119.87 786.776C1117.59 787.289 1115.32 787.801 1113.06 788.47C1112.91 788.516 1112.5 788.659 1111.95 788.851C1111.79 788.905 1111.62 788.964 1111.45 789.025L1111.04 789.169L1111.03 789.171L1111.03 789.173C1109.29 789.78 1107.06 790.562 1106.7 790.623C1105.29 804.728 1103.16 818.761 1100.31 832.646C1097.61 845.796 1082.77 852.138 1070.79 849.407C1057.58 846.398 1051.51 832.148 1054.03 819.886C1055.23 814.038 1056.32 808.171 1057.25 802.274C1057.29 801.99 1057.44 800.903 1057.61 799.707C1057.97 797.167 1058.39 794.133 1058.01 797.241C1058.36 794.392 1058.69 791.541 1058.98 788.686C1060.2 776.815 1060.84 764.887 1060.93 752.955C1061.01 741.02 1060.54 729.082 1059.51 717.191C1059.26 714.218 1058.97 711.247 1058.64 708.28C1058.61 708.025 1058.5 707.122 1058.37 706.073C1058.08 703.677 1057.69 700.517 1057.98 702.573C1057.25 697.358 1056.4 692.161 1055.45 686.982C1051.21 663.867 1044.88 641.135 1036.51 619.174C1035.69 617.013 1034.83 614.867 1033.97 612.721C1033.72 612.097 1033.47 611.473 1033.23 610.848C1032.95 610.19 1032.74 609.688 1032.6 609.343C1032.16 608.322 1031.72 607.304 1031.27 606.288C1028.85 600.834 1026.3 595.436 1023.63 590.103C1018.57 580.018 1013.03 570.191 1007.09 560.601Z" fill="black"/>
<path d="M1106.7 790.578C1106.81 790.516 1107.08 790.392 1107.56 790.189C1107.27 790.31 1106.99 790.427 1106.71 790.54C1106.71 790.553 1106.71 790.565 1106.7 790.578Z" fill="black"/>
<path d="M544.203 744.957C544.18 745.11 544.214 744.863 544.376 743.75C544.307 744.243 544.226 744.803 544.203 744.957Z" fill="black"/>
<path fill-rule="evenodd" clip-rule="evenodd" d="M800 1520C1197.65 1520 1520 1197.65 1520 800C1520 402.355 1197.65 80 800 80C402.355 80 80 402.355 80 800C80 1197.65 402.355 1520 800 1520ZM515.971 1011.31C524.165 1064.17 548.109 1113.88 577.137 1158.75C595.547 1187.21 616.038 1214.28 636.846 1241.02C656.597 1266.39 678.269 1291.19 706.331 1307.65C738.498 1326.52 775.741 1329.91 812.238 1326.94C830.19 1325.48 848.194 1323.31 865.995 1320.59C884.019 1317.84 901.854 1313.04 917.827 1303.99C947.555 1287.15 968.582 1257.49 987.986 1230.12L989.101 1228.55C1008.23 1201.57 1025.36 1173.17 1040.36 1143.69C1062.59 1099.98 1080.42 1054.06 1093.25 1006.78C1096.41 1006.45 1099.51 1005.4 1102.36 1003.47C1139.29 978.37 1162.28 938.942 1173.07 896.157C1178.95 872.828 1181.58 848.626 1183.07 824.654C1183.18 822.924 1183.3 821.162 1183.42 819.375C1183.84 813.057 1184.28 806.426 1184.37 799.757C1188.87 805.978 1196.22 810.256 1203.89 809.912C1217.25 809.313 1227.44 799.368 1227.89 785.912C1229.71 731.628 1230.1 675.577 1213.76 623.181C1205.32 596.107 1191.95 571.097 1178.47 546.279C1167 525.155 1155.29 504.087 1141.54 484.336C1127.59 464.301 1112.06 446.269 1093.75 430.615C1093.09 425.728 1090.92 421.003 1087.12 417.106C1055.34 384.487 1018.63 356.142 978.652 334.271C936.604 311.264 891.64 296.626 844.94 286.526C842.94 286.093 840.94 285.658 838.938 285.224C815.001 280.023 790.895 274.786 766.469 272.739C740.036 270.523 713.283 273.588 687.348 278.73C662.389 283.679 638 291.068 613.729 298.619C589.861 306.046 566.156 313.658 543.239 323.718C517.548 334.995 494.967 351.052 473.733 369.263C472.85 370.021 471.962 370.781 471.071 371.543L471.038 371.572C451.699 388.132 430.94 405.909 418.791 428.474C412.841 439.523 415.668 455.111 427.4 461.31C438.568 467.211 453.881 464.504 460.236 452.699C461.46 450.427 462.74 448.198 464.155 446.039C464.404 445.657 465.129 444.687 465.807 443.779L465.812 443.773C466.969 442.224 467.989 440.858 466.287 442.903C469.844 438.63 473.632 434.583 477.595 430.684C485.293 423.108 493.327 415.836 501.409 408.675C505.559 404.998 509.757 401.379 514.035 397.854C515.974 396.255 517.925 394.671 519.899 393.116L520.341 392.783C521.919 391.595 523.504 390.418 525.105 389.264C534.112 382.77 543.544 376.898 553.424 371.823C558.313 369.312 563.293 366.983 568.33 364.784C566.625 365.529 568.096 364.915 569.614 364.281C570.474 363.923 571.35 363.557 571.671 363.43C574.639 362.246 577.625 361.106 580.623 359.998C591.512 355.974 602.563 352.403 613.636 348.922L615.557 348.317L615.56 348.316C637.806 341.319 660.09 334.309 682.771 328.842C694.256 326.074 705.841 323.716 717.533 322.004C715.052 322.368 717.535 322.053 719.794 321.767L719.801 321.766C720.962 321.619 722.062 321.48 722.397 321.444C725.315 321.134 728.237 320.864 731.165 320.652C737.437 320.196 743.725 319.968 750.015 320.008C755.507 320.043 760.996 320.28 766.469 320.739C769.477 320.991 772.481 321.304 775.477 321.682L775.723 321.712C775.825 321.729 775.952 321.75 776.109 321.776C776.293 321.805 776.517 321.841 776.788 321.883L776.798 321.884L776.807 321.886C778.506 322.149 780.205 322.412 781.901 322.695C792.802 324.51 803.621 326.783 814.436 329.055L814.438 329.056C815.818 329.345 817.197 329.635 818.577 329.924C841.917 334.811 865.26 339.912 888.003 347.156C897.856 350.295 907.584 353.819 917.164 357.71C917.597 357.885 918.03 358.062 918.462 358.239C918.475 358.245 918.645 358.317 918.888 358.418C919.421 358.642 920.303 359.011 920.62 359.151C922.983 360.196 925.348 361.236 927.7 362.311C932.735 364.614 937.725 367.019 942.665 369.522C963.427 380.043 983.308 392.296 1002.08 406.05C1004.47 407.798 1006.83 409.578 1009.19 411.364L1009.23 411.398C1009.33 411.482 1009.45 411.579 1009.59 411.691C1010.25 412.237 1010.93 412.771 1011.6 413.304C1012.09 413.686 1012.57 414.069 1013.06 414.456C1017.66 418.164 1022.2 421.967 1026.65 425.859C1032.84 431.269 1038.87 436.86 1044.75 442.606C1045.39 449.958 1049.65 456.623 1056.4 461.613C1057.09 462.127 1057.56 462.477 1057.87 462.701C1058.61 463.297 1059.35 463.9 1060.09 464.505C1062.3 466.335 1064.47 468.219 1066.6 470.147C1070.86 473.997 1074.94 478.036 1078.87 482.22C1082.55 486.149 1086.09 490.216 1089.51 494.381C1089.76 494.687 1090.35 495.427 1090.94 496.18C1092.14 497.69 1093.38 499.252 1092.03 497.475C1093.92 499.957 1095.77 502.472 1097.59 505.009C1110.94 523.693 1122.36 543.676 1133.37 563.801L1134.15 565.216C1139.89 575.711 1145.64 586.213 1151.09 596.864C1153.87 602.299 1156.56 607.783 1159.07 613.345C1159.12 613.437 1159.23 613.704 1159.39 614.05C1159.67 614.677 1160.07 615.565 1160.32 616.14C1160.6 616.804 1160.99 617.711 1160.98 617.707C1162.33 621.085 1163.62 624.487 1164.82 627.921C1169.07 640.053 1172.32 652.516 1174.76 665.131C1175.29 667.891 1175.79 670.66 1176.25 673.433C1176.27 673.545 1176.31 673.827 1176.37 674.215C1176.43 674.581 1176.5 675.041 1176.57 675.543C1176.97 678.143 1177.53 681.859 1177.19 679.307C1178.03 685.603 1178.65 691.936 1179.15 698.267C1181 721.567 1180.99 744.949 1180.41 768.306C1178.26 761.939 1175.05 756.021 1170.34 750.872C1155.28 734.407 1130.63 734.795 1108.65 740.192C1107.56 691.213 1097.77 642.451 1079.08 597.054C1071.06 577.55 1061.93 558.675 1051.11 540.606C1049.89 534.154 1046.03 528.279 1039.85 524.364C959.295 473.258 852.479 462.957 763.928 498.969C751.128 504.176 738.812 510.082 726.626 516.581L725.526 517.167C720.415 519.893 715.305 522.619 710.096 525.15C707.1 526.606 704.068 527.971 701.02 529.317C700.573 529.514 700.268 529.65 700.07 529.739L699.835 529.838C698.743 530.3 697.649 530.755 696.554 531.211L696.467 531.247C695.662 531.582 694.857 531.917 694.054 532.254C668.808 542.864 646.544 556.461 624.816 573.098C603.21 589.645 582.672 607.397 563.242 626.456C561.281 628.379 559.29 630.315 557.282 632.267L557.27 632.279C540.255 648.824 522.046 666.532 510.943 687.236C503.406 701.29 500.163 716.19 497.983 731.814C496.595 741.757 495.349 751.716 494.318 761.697C478.446 760.541 462.683 766.633 451.449 779.516C449.876 781.319 448.436 783.184 447.12 785.103C447.276 780.697 447.465 776.291 447.693 771.887C448.313 759.935 449.222 747.995 450.568 736.101C450.76 734.404 450.96 732.707 451.169 731.011C451.267 730.247 451.343 729.652 451.397 729.226C451.73 726.868 452.087 724.514 452.461 722.163C453.409 716.199 454.489 710.256 455.72 704.344C457.936 693.699 460.634 683.149 463.897 672.776C465.472 667.771 467.17 662.804 469.01 657.889C469.528 656.505 470.068 655.129 470.609 653.753C470.889 653.039 471.17 652.324 471.448 651.608L471.655 651.103C471.842 650.648 471.988 650.291 472.093 650.033C472.532 649.029 472.977 648.028 473.429 647.029C477.726 637.528 482.606 628.287 488.11 619.427C490.857 615.007 493.764 610.685 496.828 606.479C497.388 605.71 497.954 604.944 498.525 604.183C498.336 604.448 498.791 603.887 499.892 602.499C500.578 601.698 501.257 600.894 501.937 600.09L501.938 600.089C503.183 598.615 504.428 597.142 505.709 595.696C514.029 586.303 515.656 570.887 505.709 561.755C496.606 553.399 480.657 551.719 471.768 561.755C402.364 640.119 398.456 747.08 398.35 846.391C398.337 858.945 409.4 870.972 422.35 870.391C428.267 870.125 433.762 867.922 437.997 864.333C440.014 879.212 442.684 894.023 445.912 908.644C450.473 929.302 455.682 950.456 465.745 969.226C476.17 988.672 494.184 1005.8 515.971 1011.31ZM418.386 656.733C424.133 635.626 431.051 614.858 439.249 594.574C439.245 594.586 441.688 588.637 440.831 590.662C441.84 588.273 442.886 585.898 443.937 583.528C446.07 578.714 448.273 573.932 450.542 569.181C455.257 559.316 460.274 549.594 465.574 540.032C470.559 531.036 475.749 522.132 481.341 513.496C483.582 510.034 485.893 506.616 488.299 503.265C488.479 503.015 489.16 502.132 489.881 501.196L489.887 501.189L489.888 501.188L489.889 501.187L489.892 501.182C491.394 499.236 493.063 497.071 490.767 499.889L491.2 499.358C492.353 497.94 493.507 496.523 494.698 495.136C497.797 491.528 501.051 488.05 504.497 484.772C505.957 483.381 507.449 482.022 508.979 480.709C509.184 480.534 509.915 479.992 510.621 479.468C512 478.444 513.287 477.49 510.382 479.47L510.811 479.178C514.519 476.649 518.162 474.164 522.159 472.086C522.355 471.985 522.967 471.707 523.631 471.406L523.633 471.405L523.639 471.402C524.816 470.869 526.152 470.262 525.629 470.426C527.488 469.75 529.364 469.141 531.265 468.573C543.285 464.99 552.078 451.565 548.027 439.05C544.091 426.888 531.391 418.448 518.505 422.289C474.881 435.29 447.862 473.825 426.502 511.565C402.971 553.138 384.649 597.888 372.101 643.973C368.805 656.074 376.201 670.612 388.863 673.496C401.518 676.377 414.857 669.696 418.386 656.733Z" fill="black"/>
</svg>
