<svg width="858" height="858" viewBox="0 0 858 858" fill="none" xmlns="http://www.w3.org/2000/svg">
<g clip-path="url(#clip0_320_2)">
<path fill-rule="evenodd" clip-rule="evenodd" d="M607.652 62.2709C647.625 84.1415 684.343 112.487 716.119 145.106C719.915 149.003 722.094 153.728 722.751 158.615C741.061 174.269 756.591 192.301 770.536 212.336C784.285 232.087 795.996 253.155 807.473 274.279C820.955 299.097 834.321 324.107 842.761 351.181C859.096 403.577 858.705 459.628 856.891 513.912C856.441 527.368 846.255 537.313 832.891 537.912C825.215 538.256 817.872 533.978 813.371 527.757C813.284 534.425 812.841 541.056 812.418 547.373L812.418 547.375L812.409 547.504C812.352 548.352 812.296 549.195 812.241 550.032C812.183 550.913 812.127 551.788 812.073 552.654C810.582 576.626 807.954 600.828 802.071 624.157C791.279 666.942 768.29 706.37 731.357 731.466C728.513 733.398 725.408 734.453 722.252 734.779C709.422 782.063 691.595 827.98 669.359 871.691C654.363 901.17 637.234 929.573 618.101 956.551L616.987 958.123C597.582 985.493 576.555 1015.15 546.827 1031.99C530.854 1041.04 513.019 1045.84 494.995 1048.59C477.194 1051.31 459.19 1053.48 441.238 1054.94C404.741 1057.91 367.498 1054.52 335.331 1035.65C307.269 1019.19 285.597 994.389 265.846 969.015C245.038 942.283 224.547 915.213 206.137 886.754C177.109 841.883 153.165 792.17 144.971 739.311C123.184 733.798 105.17 716.672 94.7449 697.226C84.6822 678.456 79.4729 657.302 74.9116 636.644C71.684 622.024 69.0141 607.212 66.9967 592.333C62.762 595.922 57.2672 598.125 51.3502 598.391C38.3996 598.972 27.3369 586.946 27.3502 574.391C27.4556 475.08 31.3636 368.119 100.768 289.755C109.657 279.719 125.606 281.399 134.709 289.755C144.656 298.887 143.029 314.303 134.709 323.696C133.429 325.142 132.184 326.614 130.939 328.087L130.939 328.088L130.939 328.088C130.258 328.893 129.578 329.698 128.892 330.499C127.79 331.888 127.335 332.449 127.525 332.182C126.954 332.944 126.388 333.71 125.828 334.479C122.764 338.686 119.857 343.007 117.11 347.427C111.606 356.287 106.726 365.528 102.429 375.03C101.977 376.028 101.532 377.029 101.093 378.033C100.952 378.38 100.736 378.906 100.448 379.608C100.171 380.322 99.8911 381.034 99.6113 381.747L99.6098 381.75L99.6083 381.754L99.6078 381.756C99.0677 383.131 98.5277 384.506 98.0102 385.89C96.1702 390.804 94.4716 395.771 92.8969 400.776C89.6342 411.15 86.9356 421.699 84.7196 432.344C83.4889 438.256 82.4089 444.199 81.4609 450.163C81.0869 452.514 80.7302 454.868 80.3972 457.226C80.3429 457.653 80.2668 458.247 80.1689 459.011C79.9596 460.707 79.7596 462.404 79.5676 464.102C78.2222 475.995 77.3129 487.935 76.6929 499.887C76.4645 504.291 76.2757 508.697 76.1196 513.103C77.436 511.184 78.8764 509.319 80.4489 507.516C91.6831 494.633 107.446 488.541 123.318 489.697C124.349 479.716 125.595 469.757 126.983 459.814C129.163 444.19 132.406 429.29 139.943 415.236C151.046 394.532 169.256 376.824 186.27 360.279L186.276 360.273L186.316 360.235L186.331 360.219L186.347 360.205L186.361 360.19C188.342 358.264 190.307 356.353 192.242 354.456C211.672 335.397 232.21 317.645 253.816 301.098C275.544 284.461 297.808 270.864 323.054 260.254C323.883 259.906 324.714 259.56 325.545 259.214L325.556 259.21C326.65 258.755 327.744 258.3 328.835 257.838L329.071 257.738C329.269 257.649 329.574 257.514 330.02 257.317C333.068 255.972 336.1 254.606 339.096 253.15C344.306 250.618 349.416 247.893 354.527 245.167L355.626 244.581C367.812 238.082 380.128 232.176 392.928 226.969C481.479 190.957 588.295 201.258 668.855 252.364C675.027 256.28 678.887 262.154 680.112 268.606C690.931 286.675 700.058 305.55 708.084 325.054C726.77 370.451 736.562 419.213 737.651 468.192C759.63 462.795 784.275 462.407 799.339 478.872C804.051 484.021 807.263 489.939 809.413 496.306C809.991 472.949 810.001 449.567 808.149 426.267C807.646 419.929 807.029 413.588 806.19 407.284C806.535 409.881 805.97 406.152 805.575 403.543L805.574 403.537C805.493 403.003 805.419 402.517 805.362 402.142C805.308 401.791 805.269 401.538 805.252 401.433C804.792 398.66 804.294 395.891 803.76 393.131C801.319 380.516 798.069 368.053 793.824 355.921C792.622 352.487 791.335 349.085 789.984 345.707C789.986 345.711 789.603 344.805 789.325 344.141C789.065 343.565 788.668 342.674 788.387 342.046L788.384 342.039L788.329 341.915C788.204 341.635 788.11 341.425 788.075 341.345C785.559 335.783 782.872 330.299 780.091 324.864C774.642 314.216 768.895 303.717 763.151 293.225L763.146 293.216L762.372 291.801C751.356 271.676 739.944 251.693 726.585 233.009C724.774 230.477 722.93 227.968 721.045 225.491C722.376 227.241 721.141 225.687 719.946 224.184L719.943 224.179C719.344 223.426 718.757 222.687 718.507 222.381C715.091 218.216 711.551 214.149 707.865 210.22C703.94 206.036 699.859 201.997 695.604 198.147C693.475 196.219 691.301 194.335 689.085 192.505C688.352 191.9 687.615 191.297 686.871 190.702C686.565 190.477 686.091 190.128 685.396 189.613C678.649 184.623 674.391 177.958 673.752 170.606C667.872 164.86 661.844 159.269 655.649 153.859C651.196 149.967 646.663 146.164 642.056 142.456C641.63 142.113 641.202 141.775 640.773 141.436L640.608 141.306L640.604 141.304L640.601 141.301L640.598 141.299C639.924 140.767 639.249 140.236 638.587 139.691L638.387 139.527L638.231 139.398L638.187 139.364C635.829 137.578 633.471 135.798 631.084 134.05C612.308 120.296 592.427 108.043 571.665 97.5215C566.725 95.0189 561.735 92.6135 556.7 90.3109C554.673 89.3848 552.636 88.4844 550.6 87.5842L549.62 87.1509C549.303 87.0109 548.422 86.642 547.888 86.4185C547.648 86.3176 547.478 86.2464 547.462 86.2392L547.172 86.1201C547.033 86.0634 546.894 86.0067 546.756 85.9501C546.559 85.8697 546.361 85.7895 546.164 85.7095C536.584 81.8189 526.856 78.2949 517.003 75.1562C494.26 67.9122 470.917 62.8109 447.577 57.9242C446.198 57.6353 444.818 57.3455 443.438 57.0556L443.438 57.0555L443.437 57.0553L443.436 57.0552L443.436 57.055C432.621 54.783 421.802 52.5098 410.901 50.6949C409.199 50.4109 407.493 50.1469 405.788 49.8829C405.286 49.8047 404.944 49.7496 404.724 49.7124L404.477 49.6815C401.481 49.3042 398.477 48.9909 395.469 48.7389C389.996 48.2802 384.507 48.0429 379.015 48.0082C372.725 47.9682 366.437 48.1962 360.165 48.6522C357.237 48.8642 354.315 49.1335 351.397 49.4442C351.061 49.48 349.958 49.6198 348.794 49.7671C346.535 50.0532 344.052 50.3677 346.533 50.0042C334.841 51.7162 323.256 54.0735 311.771 56.8415C289.089 62.3095 266.804 69.3193 244.557 76.3172L244.557 76.3174L244.556 76.3174L244.556 76.3176L242.636 76.9215C231.563 80.4029 220.512 83.9735 209.623 87.9975C206.625 89.1055 203.639 90.2455 200.671 91.4295C200.35 91.5572 199.475 91.9222 198.615 92.281L198.613 92.2819L198.613 92.282C197.094 92.9157 195.623 93.5294 197.334 92.7822C192.295 94.9823 187.314 97.3114 182.424 99.8229C172.544 104.898 163.112 110.77 154.105 117.264C152.504 118.418 150.919 119.595 149.341 120.783L148.899 121.116C146.924 122.671 144.974 124.255 143.035 125.854C138.757 129.379 134.559 132.998 130.409 136.675C122.327 143.836 114.293 151.108 106.595 158.684C102.632 162.583 98.8439 166.63 95.2866 170.903C96.989 168.858 95.969 170.223 94.8119 171.773L94.8118 171.773L94.8115 171.773L94.8108 171.774C94.1312 172.684 93.4046 173.657 93.1546 174.039C91.7399 176.198 90.4599 178.427 89.2359 180.699C82.8813 192.504 67.5679 195.211 56.3999 189.31C44.6679 183.111 41.8412 167.523 47.7906 156.474C59.9399 133.909 80.6994 116.132 100.038 99.5723L100.041 99.5695C100.942 98.7981 101.84 98.0293 102.733 97.2629C123.967 79.0522 146.548 62.9949 172.239 51.7175C195.156 41.6575 218.861 34.0455 242.729 26.6189C267 19.0682 291.389 11.6789 316.348 6.72954C342.283 1.5882 369.036 -1.47712 395.469 0.738876C419.895 2.78632 444.001 8.02331 467.938 13.2235C469.94 13.6584 471.94 14.0931 473.94 14.5255C520.64 24.6255 565.604 39.2642 607.652 62.2709ZM735.708 518.54C735.707 518.553 735.706 518.566 735.705 518.578C735.812 518.516 736.081 518.392 736.557 518.189C736.274 518.31 735.991 518.427 735.708 518.54ZM735.7 518.623C734.292 532.728 732.161 546.761 729.312 560.646C726.615 573.796 711.772 580.138 699.789 577.407C686.578 574.398 680.511 560.148 683.027 547.886C684.227 542.038 685.318 536.171 686.247 530.274C686.292 529.99 686.443 528.906 686.61 527.712C686.965 525.178 687.389 522.148 687.01 525.216C687.362 522.375 687.693 519.533 687.983 516.686C689.198 504.815 689.844 492.887 689.928 480.955C690.015 469.02 689.539 457.082 688.513 445.191C688.256 442.218 687.966 439.247 687.64 436.28C687.612 436.026 687.501 435.123 687.372 434.075C687.077 431.676 686.688 428.51 686.982 430.577C686.249 425.361 685.396 420.162 684.447 414.982C680.208 391.867 673.876 369.135 665.51 347.174C664.686 345.012 663.829 342.865 662.971 340.719C662.723 340.095 662.474 339.472 662.226 338.848C661.953 338.19 661.745 337.688 661.603 337.343C661.161 336.323 660.716 335.304 660.266 334.288C657.848 328.834 655.302 323.436 652.628 318.103C647.57 308.018 642.032 298.191 636.093 288.601C627.993 283.851 619.664 279.51 611.103 275.63C610.462 275.34 609.817 275.057 609.173 274.774L609.166 274.771L608.864 274.638C608.468 274.457 607.802 274.158 607.364 273.973C607.863 274.197 608.363 274.418 608.864 274.638C608.964 274.684 609.047 274.722 609.105 274.749C609.377 274.876 609.081 274.75 607.361 273.971C607.262 273.929 607.174 273.893 607.104 273.865C604.15 272.69 601.196 271.521 598.212 270.424C592.575 268.352 586.874 266.461 581.116 264.754C569.594 261.34 557.852 258.66 545.992 256.717C544.256 256.433 542.516 256.174 540.774 255.916C539.559 255.791 538.345 255.655 537.131 255.518C535.197 255.302 533.263 255.085 531.323 254.91C525.334 254.372 519.326 254.022 513.314 253.856C502.354 253.55 491.378 253.865 480.452 254.797C477.634 255.037 474.82 255.321 472.011 255.645C471.059 255.754 470.106 255.867 469.154 255.986L468.623 256.074L467.882 256.196C462.999 256.998 458.127 257.82 453.279 258.824C442.559 261.045 431.967 263.893 421.586 267.369C415.927 269.264 410.367 271.391 404.828 273.606C407.278 272.627 405.893 273.217 404.218 273.931L404.214 273.933C403.231 274.352 402.147 274.814 401.682 275.026C399.427 276.05 397.186 277.104 394.962 278.192C389.725 280.755 384.581 283.503 379.438 286.25C373.371 289.491 367.305 292.731 361.084 295.67C354.967 298.56 348.715 301.162 342.468 303.762L342.466 303.763L342.35 303.811L342.241 303.856C341.767 304.053 341.294 304.251 340.82 304.448C340.307 304.661 339.795 304.875 339.283 305.089C339.057 305.183 338.867 305.263 338.708 305.329C338.494 305.418 338.338 305.482 338.228 305.528L338.088 305.588C336.936 306.082 335.786 306.577 334.64 307.084C331.627 308.418 328.638 309.806 325.692 311.284C315.09 316.604 305.07 323.017 295.364 329.817C290.15 333.472 285.02 337.246 279.944 341.093C276.127 343.986 278.291 342.369 279.118 341.722C277.862 342.705 276.608 343.693 275.36 344.686C273.176 346.424 271.007 348.18 268.85 349.95C249.722 365.645 231.627 382.57 214.343 400.266C205.803 409.009 197.386 417.877 189.458 427.181L189.098 427.622C188.887 427.881 188.676 428.14 188.465 428.399C188.391 428.501 188.306 428.615 188.212 428.742C188.099 428.9 187.986 429.057 187.873 429.214C187.309 429.997 186.746 430.78 186.203 431.578C184.471 434.124 182.848 436.75 181.39 439.462C180.777 440.6 180.18 441.761 179.631 442.934L179.53 443.312C179.189 444.57 178.783 445.81 178.377 447.051L178.377 447.051L178.376 447.052C177.921 448.444 177.465 449.837 177.1 451.257C175.519 457.417 174.548 463.709 173.631 469.994C173.534 470.66 173.457 471.192 173.396 471.613C173.179 473.249 172.975 474.888 172.774 476.525C172.404 479.542 172.056 482.561 171.73 485.582C170.279 498.962 169.239 512.388 168.623 525.832C167.388 552.732 167.863 579.673 169.906 606.522C170.926 619.928 158.092 629.976 145.906 630.522C132.264 631.133 122.855 619.01 121.906 606.522C120.147 583.409 119.562 560.226 120.214 537.067C119.847 537.15 119.437 537.248 118.996 537.358C118.875 537.388 118.764 537.415 118.66 537.439C118.508 537.587 118.311 537.762 118.061 537.97C117.264 538.633 116.858 538.928 116.699 538.999C116.265 539.418 115.843 539.847 115.432 540.287L115.389 540.353C114.051 543.435 114.285 542.065 114.379 541.514L114.389 541.457C114.44 541.152 114.411 541.249 113.874 543.065C113.253 545.162 112.693 547.242 112.204 549.377C112.117 549.754 112.041 550.071 111.974 550.335C111.981 550.672 111.978 551.121 111.964 551.706C111.713 561.728 112.517 571.548 113.729 581.497C113.724 581.456 114.762 589.185 114.194 585.182C114.55 587.696 114.925 590.206 115.318 592.712C116.169 598.146 117.11 603.564 118.136 608.966C120.108 619.356 122.4 629.684 125.01 639.932C126.389 645.342 127.828 650.746 129.48 656.082C130.172 658.314 130.894 660.538 131.674 662.741C131.679 662.755 131.713 662.846 131.768 662.992C132.15 664.011 133.542 667.727 133.149 666.867C134.966 671.08 137.246 675.174 139.726 679.005C140.22 679.786 140.734 680.555 141.266 681.31L141.484 681.574C141.847 681.968 142.206 682.365 142.566 682.761L142.568 682.764L142.575 682.771L142.576 682.773L142.577 682.774L142.578 682.774L142.578 682.775L142.579 682.776L142.58 682.777C143.389 683.67 144.198 684.563 145.048 685.421C149.159 678.144 156.97 673.369 165.967 672.966C178.791 672.391 190.159 684.407 189.967 696.966C189.83 705.919 190.153 714.858 191.042 723.77C191.197 725.313 191.361 726.854 191.547 728.393C191.517 728.022 191.83 730.094 192.046 731.522C192.138 732.13 192.213 732.621 192.235 732.758C192.903 736.755 193.67 740.734 194.531 744.695C198.162 761.41 203.689 777.411 209.873 793.326C209.975 793.574 210.06 793.779 210.126 793.939C210.549 794.916 210.976 795.893 211.409 796.867C212.017 798.237 212.633 799.603 213.255 800.963C215.134 805.063 217.086 809.129 219.102 813.162C223.163 821.289 227.497 829.279 232.034 837.15C240.817 852.385 250.375 867.162 260.377 881.622C269.07 894.193 278.106 906.521 287.307 918.722C290.043 922.35 292.794 925.966 295.555 929.573C296.023 930.183 296.492 930.792 296.96 931.402L297.039 931.505C297.29 931.831 297.541 932.158 297.792 932.484C298.032 932.796 298.271 933.108 298.51 933.42C298.66 933.616 298.81 933.812 298.959 934.007L299.225 934.355C299.388 934.564 299.575 934.803 299.787 935.074C304.213 940.733 308.67 946.366 313.286 951.873C322.457 962.811 332.195 973.342 343.071 982.617C343.281 982.795 344.053 983.408 344.914 984.091L344.92 984.096C346.909 985.674 349.365 987.623 346.453 985.463C347.579 986.299 348.71 987.13 349.857 987.939C352.714 989.959 355.647 991.877 358.653 993.671C361.659 995.467 364.741 997.146 367.89 998.682C367.812 998.644 369.565 999.432 370.726 999.968C372.031 1000.46 374.385 1001.38 374.127 1001.29C378.625 1002.88 383.219 1004.19 387.874 1005.24C389.419 1005.59 390.973 1005.9 392.53 1006.2C392.254 1006.15 394.902 1006.57 396.343 1006.82C397.773 1006.97 400.586 1007.3 400.297 1007.27C402.281 1007.45 404.269 1007.59 406.258 1007.7C410.257 1007.92 414.258 1008.01 418.263 1007.99C434.83 1007.94 451.327 1006.11 467.759 1004.16L467.889 1004.14L467.903 1004.14L467.917 1004.14L467.931 1004.14C470.207 1003.86 472.485 1003.59 474.759 1003.31C474.812 1003.31 474.999 1003.28 475.27 1003.25L475.634 1003.2L475.721 1003.19L475.776 1003.18L475.794 1003.18L475.832 1003.17C477.497 1002.96 480.356 1002.58 479.068 1002.77C482.431 1002.29 485.788 1001.77 489.131 1001.17C496.719 999.802 504.261 998.059 511.563 995.567C511.8 995.487 512.441 995.244 513.156 994.973C514.599 994.427 516.342 993.767 515.67 994.094C516.652 993.645 517.625 993.171 518.586 992.687C521.934 991.007 525.169 989.115 528.289 987.045C528.353 987.002 528.651 986.788 529.051 986.502L529.06 986.496L529.063 986.493L529.07 986.488C530.216 985.669 532.168 984.272 531.919 984.518C532.638 983.929 533.347 983.325 534.049 982.725C536.879 980.306 539.593 977.75 542.221 975.114C548.046 969.277 553.403 962.99 558.557 956.558C558.684 956.4 558.81 956.241 558.937 956.083C559.105 955.872 559.273 955.66 559.441 955.448C559.641 955.196 559.841 954.943 560.04 954.69C560.475 954.14 560.909 953.589 561.345 953.039C561.688 952.607 561.965 952.26 562.185 951.985C562.418 951.673 562.733 951.255 563.146 950.707C565.438 947.673 567.726 944.638 569.978 941.574C578.983 929.319 587.57 916.758 595.725 903.922C612.646 877.285 627.705 849.467 640.782 820.749C642.515 816.942 644.215 813.121 645.879 809.283C645.901 809.233 646.006 808.985 646.156 808.632C646.754 807.222 648.06 804.146 647.561 805.351C647.708 804.998 647.855 804.644 648.001 804.29C648.261 803.661 648.519 803.033 648.777 802.403C651.663 795.369 654.43 788.283 657.079 781.157C662.51 766.545 667.441 751.747 671.861 736.798C680.811 706.526 687.599 675.657 692.275 644.438C694.266 631.161 710.383 625.077 721.799 627.675C734.468 630.562 739.64 642.83 738.859 654.449C740.015 652.456 741.128 650.437 742.199 648.397C743.183 646.522 744.133 644.628 745.047 642.717C745.17 642.46 745.579 641.531 746.03 640.504L746.033 640.498C746.994 638.312 748.147 635.688 747.153 638.17C748.955 633.679 750.594 629.127 752.061 624.516C755.823 612.698 758.525 600.562 760.501 588.325C760.525 588.176 760.584 587.764 760.663 587.21C760.701 586.947 760.742 586.651 760.787 586.337L760.886 585.636L760.888 585.622V585.621L760.892 585.592C761.268 582.928 761.724 579.694 761.393 582.406C761.694 579.937 761.981 577.466 762.242 574.992C762.939 568.386 763.477 561.766 763.914 555.14C763.992 553.964 764.071 552.786 764.15 551.608V551.607V551.607V551.606V551.606C764.867 540.962 765.592 530.211 765.051 519.573C764.987 518.272 764.895 516.974 764.777 515.677C764.745 515.639 764.62 514.988 764.402 513.725C764.378 513.615 764.354 513.505 764.33 513.395L764.235 513.394C764.179 513.393 764.122 513.392 764.066 513.392C761.259 513.331 758.476 513.5 755.682 513.671H755.682H755.681H755.68H755.679H755.678H755.677L755.674 513.671C755.279 513.695 754.884 513.719 754.489 513.742C753.743 513.786 753.268 513.8 752.982 513.795C752.661 513.89 752.152 514.022 751.377 514.204C750.54 514.4 749.704 514.588 748.869 514.776L748.867 514.777C746.588 515.29 744.315 515.801 742.063 516.47C741.835 516.538 741.016 516.826 740.036 517.169L740.032 517.17L740.027 517.172C738.294 517.779 736.063 518.562 735.7 518.623ZM173.202 472.962C173.181 473.105 173.216 472.852 173.375 471.755C173.306 472.252 173.224 472.815 173.202 472.962ZM47.3861 384.733C53.1328 363.627 60.0515 342.859 68.2488 322.575C68.2451 322.586 70.6849 316.645 69.8322 318.658C70.8415 316.271 71.8869 313.897 72.9368 311.528C75.0701 306.715 77.2728 301.932 79.5421 297.181C84.2568 287.316 89.2741 277.595 94.5741 268.032C99.5595 259.036 104.749 250.132 110.341 241.496C112.582 238.035 114.893 234.616 117.299 231.265C117.479 231.014 118.164 230.127 118.888 229.188C120.391 227.24 122.065 225.069 119.767 227.889L120.199 227.359C121.353 225.94 122.507 224.523 123.698 223.136C126.797 219.528 130.051 216.051 133.497 212.772C134.957 211.381 136.449 210.023 137.979 208.709C138.184 208.534 138.915 207.992 139.621 207.468L139.621 207.468C141 206.445 142.287 205.49 139.382 207.471L139.812 207.177L139.813 207.177C143.519 204.648 147.162 202.164 151.159 200.087C151.355 199.985 151.964 199.708 152.627 199.408L152.628 199.407L152.633 199.405L152.633 199.405L152.634 199.405C153.812 198.871 155.153 198.262 154.629 198.426C156.488 197.75 158.364 197.141 160.265 196.573C172.285 192.991 181.078 179.565 177.027 167.051C173.091 154.888 160.391 146.448 147.505 150.289C103.881 163.291 76.8621 201.825 55.5021 239.565C31.9715 281.139 13.6488 325.888 1.1008 371.973C-2.1952 384.075 5.2008 398.612 17.8635 401.496C30.5181 404.377 43.8568 397.696 47.3861 384.733Z" fill="#303030"/>
</g>
<defs>
<clipPath id="clip0_320_2">
<rect width="858" height="858" fill="white"/>
</clipPath>
</defs>
</svg>
