<svg width="1024" height="1024" viewBox="0 0 1024 1024" fill="none" xmlns="http://www.w3.org/2000/svg">
<path d="M373 2.22656H651C665.245 2.22656 679.477 2.2206 693.712 2.31055H693.713C705.701 2.3795 717.678 2.51741 729.648 2.8418C755.746 3.54981 781.975 5.08395 807.653 9.7002C833.684 14.3787 857.873 22.0074 881.475 34.0205C904.679 45.8311 925.912 61.2648 944.324 79.6768C962.735 98.0878 978.169 119.323 989.979 142.526C1001.99 166.128 1009.62 190.316 1014.3 216.348C1018.92 242.025 1020.45 268.255 1021.16 294.352C1021.48 306.322 1021.62 318.299 1021.69 330.287V330.288C1021.78 344.523 1021.77 358.755 1021.77 373V651C1021.77 665.245 1021.78 679.477 1021.69 693.712V693.713C1021.62 705.701 1021.48 717.678 1021.16 729.648C1020.45 755.745 1018.92 781.975 1014.3 807.652C1009.62 833.684 1001.99 857.873 989.979 881.475C978.169 904.679 962.735 925.912 944.324 944.323C925.912 962.735 904.679 978.169 881.475 989.979C857.873 1001.99 833.684 1009.62 807.653 1014.3C781.975 1018.92 755.746 1020.45 729.648 1021.16C717.678 1021.48 705.701 1021.62 693.713 1021.69H693.712C679.477 1021.78 665.245 1021.77 651 1021.77H373C358.755 1021.77 344.523 1021.78 330.288 1021.69H330.287C318.299 1021.62 306.322 1021.48 294.352 1021.16C268.255 1020.45 242.025 1018.92 216.348 1014.3C190.316 1009.62 166.128 1001.99 142.526 989.979C120.048 978.538 99.417 963.696 81.4111 946.04L79.6768 944.323L77.96 942.589C60.3043 924.583 45.4631 903.954 34.0205 881.475C22.3829 858.61 14.8598 835.195 10.1475 810.088L9.7002 807.652L9.27637 805.243C4.98886 780.335 3.52769 754.929 2.84277 729.648C2.51739 717.678 2.3795 705.701 2.31055 693.713V693.712L2.28027 688.374C2.22116 675.919 2.22656 663.464 2.22656 651V373C2.22656 358.755 2.2206 344.523 2.31055 330.288V330.287C2.37088 319.797 2.4832 309.316 2.72852 298.841L2.84277 294.352C3.54979 268.255 5.08395 242.025 9.7002 216.348C14.3787 190.316 22.0065 166.127 34.0195 142.525L34.0205 142.526C45.8322 119.323 61.2648 98.0877 79.6768 79.6768C98.0878 61.2648 119.323 45.8311 142.526 34.0205L142.525 34.0195C166.127 22.0065 190.316 14.3787 216.348 9.7002C242.025 5.08395 268.255 3.54981 294.352 2.8418C306.322 2.5174 318.299 2.3795 330.287 2.31055H330.288C344.523 2.2206 358.755 2.22656 373 2.22656Z" stroke="black" stroke-opacity="0.1" stroke-width="4.45217"/>
</svg>
