<svg width="1024" height="1024" viewBox="0 0 1024 1024" fill="none" xmlns="http://www.w3.org/2000/svg">
<path fill-rule="evenodd" clip-rule="evenodd" d="M1024 651C1024 665.243 1024.01 679.483 1023.92 693.726C1023.85 705.722 1023.71 717.716 1023.38 729.709C1022.68 755.842 1021.14 782.203 1016.49 808.046C1011.78 834.264 1004.09 858.664 991.963 882.484C980.046 905.897 964.474 927.321 945.898 945.897C927.321 964.474 905.897 980.046 882.484 991.963C858.664 1004.09 834.264 1011.78 808.047 1016.49C782.203 1021.14 755.843 1022.68 729.709 1023.38C717.716 1023.71 705.722 1023.85 693.726 1023.92C679.483 1024.01 665.243 1024 651 1024H373C358.757 1024 344.517 1024.01 330.274 1023.92C318.278 1023.85 306.284 1023.71 294.291 1023.38C268.158 1022.68 241.797 1021.14 215.954 1016.49C189.736 1011.78 165.336 1004.09 141.516 991.963C118.104 980.046 96.6791 964.474 78.1031 945.897C59.5261 927.321 43.9551 905.897 32.0371 882.484C19.9131 858.664 12.2211 834.264 7.50908 808.046C2.86308 782.203 1.32508 755.842 0.617083 729.709C0.291083 717.716 0.153083 705.722 0.084083 693.726C-0.00591696 679.483 8.3045e-05 665.243 8.3045e-05 651V373C8.3045e-05 358.757 -0.00591696 344.517 0.084083 330.274C0.153083 318.278 0.291083 306.284 0.617083 294.291C1.32508 268.158 2.86308 241.797 7.50908 215.954C12.2211 189.736 19.9131 165.336 32.0371 141.516C43.9551 118.104 59.5261 96.6791 78.1031 78.1031C96.6791 59.5261 118.104 43.9541 141.516 32.0371C165.336 19.9131 189.736 12.2211 215.954 7.50908C241.797 2.86308 268.158 1.32508 294.291 0.616083C306.284 0.291083 318.278 0.153083 330.274 0.084083C344.517 -0.00591696 358.757 8.3045e-05 373 8.3045e-05H651C665.243 8.3045e-05 679.483 -0.00591696 693.726 0.084083C705.722 0.153083 717.716 0.291083 729.709 0.616083C755.843 1.32508 782.203 2.86308 808.047 7.50908C834.264 12.2211 858.664 19.9131 882.484 32.0371C905.897 43.9541 927.321 59.5261 945.898 78.1031C964.474 96.6791 980.046 118.104 991.963 141.516C1004.09 165.336 1011.78 189.736 1016.49 215.954C1021.14 241.797 1022.68 268.158 1023.38 294.291C1023.71 306.284 1023.85 318.278 1023.92 330.274C1024.01 344.517 1024 358.757 1024 373V651Z" fill="black"/>
</svg>
