<svg width="1024" height="1024" viewBox="0 0 1024 1024" fill="none" xmlns="http://www.w3.org/2000/svg">
<style>
    path { fill: #303030; } @media (prefers-contrast: more) { path { fill: #000; } }
    @media (prefers-color-scheme: dark) { path { fill: #c8d8d9; } @media (prefers-contrast: more) { path { fill: #dbebed; } } }
</style>
<path fill-rule="evenodd" clip-rule="evenodd" d="M685.238 60.3839C724 81.5918 759.605 109.078 790.418 140.708C794.1 144.488 796.213 149.07 796.849 153.808C814.604 168.988 829.664 186.474 843.186 205.902C856.519 225.054 867.875 245.483 879.004 265.967C892.077 290.034 905.039 314.285 913.223 340.54C929.063 391.348 928.684 445.7 926.924 498.339C926.489 511.387 916.611 521.031 903.652 521.612C896.209 521.945 889.088 517.797 884.724 511.765C884.639 518.231 884.209 524.661 883.799 530.787V530.788L883.798 530.813C883.682 532.537 883.569 534.237 883.465 535.907C882.019 559.153 879.471 582.621 873.766 605.243C863.301 646.732 841.009 684.965 805.195 709.301C802.437 711.174 799.426 712.197 796.366 712.514C783.924 758.364 766.637 802.889 745.076 845.277C730.534 873.862 713.924 901.404 695.371 927.565L694.29 929.089C675.473 955.63 655.084 984.389 626.257 1000.72C610.768 1009.49 593.473 1014.15 575.996 1016.82C558.734 1019.45 541.275 1021.55 523.867 1022.97C488.476 1025.85 452.362 1022.56 421.17 1004.27C393.958 988.306 372.942 964.256 353.79 939.651C333.613 913.729 313.743 887.479 295.89 859.883C267.742 816.371 244.524 768.165 236.578 716.907C215.451 711.562 197.983 694.955 187.874 676.098C178.116 657.896 173.065 637.384 168.642 617.351C165.512 603.174 162.923 588.811 160.967 574.384C156.86 577.864 151.532 580 145.794 580.258C133.236 580.822 122.509 569.159 122.522 556.985C122.624 460.684 126.413 356.964 193.714 280.974C202.334 271.243 217.8 272.872 226.627 280.974C236.272 289.83 234.695 304.779 226.627 313.887C225.386 315.289 224.18 316.716 222.973 318.144L222.971 318.146C222.311 318.927 221.651 319.707 220.986 320.484C219.918 321.831 219.476 322.375 219.661 322.116C219.107 322.855 218.559 323.597 218.015 324.343C215.044 328.422 212.225 332.613 209.562 336.899C204.224 345.49 199.492 354.452 195.325 363.665C194.887 364.633 194.455 365.604 194.03 366.577C193.893 366.914 193.684 367.423 193.404 368.105C193.135 368.799 192.862 369.493 192.59 370.186C192.066 371.52 191.542 372.853 191.04 374.196C189.256 378.962 187.609 383.778 186.082 388.632C182.918 398.691 180.301 408.92 178.152 419.243C176.959 424.976 175.912 430.738 174.992 436.522C174.63 438.802 174.284 441.085 173.961 443.371C173.908 443.785 173.835 444.361 173.74 445.101C173.537 446.746 173.343 448.392 173.157 450.038C171.852 461.571 170.97 473.149 170.369 484.739C170.148 489.01 169.964 493.282 169.813 497.554C171.09 495.693 172.486 493.885 174.011 492.136C184.905 479.644 200.19 473.736 215.581 474.858C216.581 465.179 217.789 455.522 219.135 445.881C221.249 430.73 224.393 416.282 231.702 402.653C242.469 382.576 260.127 365.405 276.625 349.362L276.632 349.355C278.581 347.46 280.513 345.581 282.416 343.715C301.258 325.233 321.173 308.019 342.125 291.974C363.195 275.841 384.784 262.656 409.264 252.368C410.069 252.03 410.874 251.695 411.679 251.36L411.69 251.355C412.752 250.914 413.812 250.473 414.87 250.025L415.1 249.928C415.292 249.842 415.588 249.71 416.02 249.519C418.975 248.215 421.916 246.891 424.821 245.479C429.873 243.024 434.829 240.38 439.785 237.737L440.849 237.169C452.667 230.868 464.609 225.14 477.021 220.091C562.889 185.17 666.468 195.16 744.587 244.716C750.572 248.514 754.315 254.21 755.503 260.467C765.994 277.988 774.844 296.291 782.627 315.204C800.747 359.226 810.242 406.51 811.298 454.004C832.611 448.771 856.509 448.395 871.117 464.36C875.686 469.354 878.801 475.092 880.885 481.266C881.446 458.617 881.456 435.944 879.66 413.35C879.172 407.202 878.574 401.052 877.76 394.938C878.095 397.459 877.549 393.859 877.166 391.329L877.163 391.31C877.011 390.309 876.885 389.479 876.85 389.269C876.404 386.58 875.922 383.894 875.404 381.218C873.036 368.985 869.885 356.9 865.769 345.136C864.604 341.805 863.355 338.507 862.045 335.231L862.03 335.196C861.959 335.028 861.643 334.279 861.406 333.713C861.152 333.15 860.763 332.276 860.491 331.667C860.345 331.34 860.233 331.089 860.194 331.002C857.754 325.608 855.149 320.29 852.452 315.02C847.166 304.69 841.591 294.506 836.019 284.327L836.018 284.326L835.27 282.959C824.588 263.444 813.521 244.066 800.568 225.949C798.809 223.49 797.019 221.053 795.188 218.649C796.492 220.362 795.289 218.848 794.127 217.386C793.546 216.656 792.976 215.939 792.734 215.643C789.421 211.603 785.988 207.66 782.415 203.85C778.608 199.793 774.651 195.876 770.525 192.142C768.46 190.273 766.353 188.446 764.204 186.672C763.493 186.085 762.778 185.5 762.057 184.923C761.894 184.803 761.681 184.646 761.41 184.447C761.189 184.283 760.929 184.092 760.626 183.868C754.084 179.028 749.955 172.565 749.335 165.436C743.634 159.864 737.788 154.443 731.781 149.196C727.463 145.422 723.067 141.735 718.6 138.139C718.133 137.764 717.663 137.393 717.192 137.022L717.189 137.019L717.186 137.017C716.532 136.502 715.878 135.986 715.236 135.458C715.103 135.349 714.989 135.255 714.89 135.173L714.848 135.141C712.562 133.409 710.275 131.682 707.96 129.987C689.753 116.651 670.474 104.769 650.342 94.5664C645.552 92.1395 640.712 89.8071 635.83 87.5742C633.865 86.6761 631.89 85.8029 629.915 84.9299L628.965 84.51C628.658 84.3746 627.808 84.0184 627.29 83.8015L627.286 83.7998C627.052 83.7019 626.887 83.6328 626.872 83.6259C626.453 83.4539 626.034 83.2825 625.614 83.1123C616.324 79.3395 606.891 75.9223 597.336 72.8788C575.282 65.8543 552.647 60.9075 530.014 56.1689C528.676 55.8887 527.338 55.6075 525.999 55.3263C515.512 53.123 505.02 50.9187 494.45 49.1587C492.799 48.8834 491.146 48.6274 489.493 48.3715L489.491 48.3713C489.005 48.2955 488.673 48.2421 488.46 48.206L488.22 48.176C485.315 47.8102 482.402 47.5063 479.485 47.2619C474.178 46.8172 468.855 46.587 463.529 46.5534C457.431 46.5146 451.333 46.7357 445.251 47.1779C442.412 47.3835 439.578 47.6447 436.749 47.9459C436.423 47.9806 435.353 48.1162 434.225 48.259C432.035 48.5364 429.626 48.8414 432.032 48.4889C420.695 50.1491 409.46 52.435 398.323 55.1191C376.329 60.4214 354.719 67.2189 333.146 74.0048L331.283 74.5906C320.546 77.9664 309.83 81.4289 299.27 85.331C296.364 86.4054 293.468 87.5108 290.59 88.659C290.279 88.7828 289.43 89.1368 288.596 89.4848L288.596 89.485C287.125 90.0989 285.699 90.6938 287.347 89.9736C282.464 92.1062 277.636 94.3637 272.896 96.798C263.315 101.719 254.169 107.413 245.435 113.711C243.883 114.829 242.345 115.971 240.816 117.123L240.387 117.446C238.473 118.954 236.581 120.489 234.7 122.04C230.553 125.458 226.481 128.967 222.458 132.533C214.62 139.478 206.83 146.529 199.365 153.876C195.522 157.656 191.849 161.58 188.399 165.724C190.05 163.741 189.061 165.065 187.939 166.567C187.28 167.45 186.574 168.394 186.332 168.765C184.96 170.858 183.719 173.02 182.532 175.223C176.37 186.671 161.52 189.295 150.691 183.573C139.314 177.562 136.573 162.446 142.342 151.732C154.124 129.851 174.254 112.613 193.006 96.555L193.006 96.555C193.881 95.806 194.753 95.0597 195.62 94.3155C216.21 76.6567 238.107 61.086 263.019 50.1504C285.242 40.3952 308.229 33.0139 331.374 25.8123C354.909 18.4904 378.559 11.325 402.762 6.52563C427.91 1.5401 453.853 -1.43234 479.485 0.716505C503.171 2.7019 526.546 7.78019 549.758 12.8228C551.699 13.2445 553.639 13.666 555.578 14.0854C600.863 23.8793 644.464 38.0744 685.238 60.3839ZM809.414 502.827C809.413 502.839 809.412 502.851 809.411 502.864C809.515 502.804 809.776 502.683 810.237 502.486C809.963 502.603 809.689 502.717 809.414 502.827ZM809.406 502.907C808.041 516.585 805.975 530.193 803.212 543.657C800.596 556.409 786.203 562.558 774.584 559.91C761.772 556.992 755.889 543.174 758.329 531.283C759.493 525.612 760.55 519.924 761.452 514.205C761.495 513.93 761.642 512.877 761.805 511.719C762.148 509.264 762.558 506.331 762.193 509.292C762.533 506.54 762.854 503.787 763.135 501.029C764.313 489.518 764.94 477.951 765.021 466.381C765.105 454.808 764.644 443.231 763.65 431.7C763.4 428.817 763.118 425.937 762.803 423.06C762.775 422.813 762.668 421.94 762.543 420.924C762.257 418.597 761.88 415.523 762.164 417.531C761.453 412.472 760.626 407.43 759.706 402.407C755.596 379.992 749.456 357.949 741.343 336.653C740.545 334.559 739.714 332.478 738.883 330.398C738.641 329.792 738.399 329.186 738.158 328.58C737.893 327.941 737.692 327.455 737.554 327.12C737.126 326.131 736.694 325.143 736.258 324.159C733.913 318.869 731.444 313.635 728.852 308.464C723.947 298.684 718.576 289.155 712.817 279.856C704.963 275.249 696.886 271.04 688.585 267.278C688.086 267.052 687.586 266.831 687.085 266.611L686.707 266.445L686.412 266.315C686.028 266.14 685.384 265.851 684.96 265.671C685.205 265.781 685.45 265.89 685.695 265.999C685.841 266.064 685.987 266.128 686.133 266.192L686.412 266.315C686.504 266.357 686.581 266.393 686.637 266.419C686.919 266.55 686.646 266.434 684.957 265.669L684.918 265.653L684.845 265.622C684.794 265.601 684.747 265.582 684.707 265.566C681.842 264.427 678.978 263.293 676.085 262.229C670.618 260.22 665.09 258.386 659.507 256.731C648.333 253.42 636.948 250.821 625.447 248.938C623.764 248.662 622.076 248.411 620.387 248.161C619.209 248.04 618.033 247.908 616.856 247.776L616.854 247.775C614.979 247.565 613.103 247.355 611.222 247.186C605.414 246.663 599.589 246.325 593.759 246.163C583.131 245.867 572.487 246.172 561.893 247.076C559.16 247.309 556.432 247.584 553.708 247.898C552.784 248.004 551.86 248.113 550.937 248.229C550.62 248.282 550.214 248.348 549.703 248.432C544.969 249.21 540.244 250.007 535.543 250.981C525.148 253.135 514.877 255.896 504.81 259.267C499.32 261.106 493.925 263.17 488.552 265.318C490.939 264.364 489.596 264.937 487.969 265.631C487.014 266.038 485.962 266.487 485.51 266.692C483.323 267.685 481.15 268.707 478.993 269.762C473.915 272.248 468.927 274.912 463.94 277.576C458.057 280.718 452.174 283.861 446.142 286.711C440.211 289.513 434.149 292.036 428.091 294.557L428.091 294.557L428.09 294.557L428.09 294.557L428.09 294.557L428.09 294.557C427.06 294.986 426.03 295.414 425.002 295.844L424.627 296L424.298 296.137C424.164 296.193 424.059 296.236 423.98 296.269L423.843 296.327C422.726 296.807 421.61 297.287 420.5 297.778C417.578 299.072 414.679 300.418 411.823 301.851C401.542 307.01 391.825 313.229 382.414 319.822C377.357 323.366 372.383 327.027 367.461 330.757C363.76 333.562 365.858 331.994 366.66 331.367C365.442 332.32 364.226 333.278 363.016 334.241C360.898 335.926 358.795 337.629 356.703 339.346C338.154 354.565 320.608 370.977 303.848 388.137C295.567 396.615 287.404 405.214 279.717 414.236C279.497 414.505 279.277 414.775 279.058 415.044L278.754 415.417C278.682 415.516 278.6 415.627 278.509 415.75C278.405 415.894 278.302 416.039 278.198 416.183L278.18 416.208C277.633 416.967 277.087 417.726 276.561 418.5C274.881 420.968 273.308 423.515 271.893 426.145C271.299 427.249 270.72 428.374 270.188 429.512L270.089 429.878C269.759 431.098 269.365 432.3 268.972 433.504L268.971 433.505C268.529 434.854 268.087 436.205 267.734 437.583C266.2 443.556 265.259 449.657 264.37 455.752C264.276 456.397 264.2 456.914 264.141 457.322C263.931 458.908 263.734 460.497 263.538 462.085C263.18 465.011 262.843 467.938 262.526 470.868C261.119 483.842 260.111 496.861 259.513 509.897C258.316 535.982 258.776 562.107 260.757 588.143C261.746 601.142 249.302 610.885 237.484 611.416C224.256 612.008 215.132 600.252 214.212 588.143C212.506 565.73 211.939 543.25 212.571 520.793C212.216 520.873 211.817 520.967 211.39 521.075C211.273 521.104 211.165 521.13 211.065 521.153C210.917 521.296 210.726 521.467 210.483 521.668C209.711 522.311 209.318 522.596 209.163 522.666C208.742 523.072 208.333 523.488 207.934 523.915L207.892 523.979C206.595 526.968 206.822 525.639 206.913 525.104L206.923 525.049C206.972 524.754 206.944 524.847 206.424 526.608C205.821 528.642 205.278 530.659 204.804 532.729C204.72 533.095 204.646 533.402 204.581 533.658C204.587 533.985 204.585 534.42 204.571 534.988C204.328 544.706 205.107 554.228 206.283 563.876C206.277 563.836 207.285 571.331 206.734 567.449C207.079 569.887 207.442 572.321 207.824 574.751C208.649 580.021 209.562 585.274 210.556 590.513C212.468 600.587 214.691 610.602 217.222 620.54C218.559 625.786 219.954 631.027 221.556 636.201C222.227 638.365 222.928 640.522 223.684 642.658C223.689 642.672 223.722 642.759 223.775 642.9C224.144 643.886 225.495 647.493 225.114 646.659C226.876 650.744 229.087 654.714 231.492 658.429C231.971 659.187 232.469 659.932 232.986 660.665L233.196 660.92C233.552 661.306 233.903 661.694 234.254 662.081C235.041 662.95 235.826 663.816 236.653 664.65C240.639 657.594 248.213 652.964 256.938 652.573C269.374 652.016 280.397 663.668 280.211 675.846C280.078 684.528 280.391 693.196 281.253 701.838C281.403 703.333 281.563 704.828 281.743 706.321C281.713 705.961 282.017 707.966 282.226 709.351L282.227 709.355C282.316 709.944 282.388 710.42 282.41 710.553C283.058 714.429 283.801 718.288 284.637 722.129C288.157 738.337 293.516 753.853 299.513 769.286C299.613 769.527 299.694 769.725 299.758 769.88C300.169 770.828 300.583 771.775 301.003 772.72C301.592 774.048 302.189 775.373 302.793 776.692C304.615 780.668 306.508 784.61 308.463 788.521C312.401 796.401 316.603 804.15 321.003 811.782C329.519 826.555 338.788 840.884 348.487 854.906C356.917 867.096 365.679 879.05 374.601 890.882C377.254 894.4 379.922 897.907 382.599 901.404C383.052 901.995 383.507 902.586 383.961 903.176C384.608 904.019 385.256 904.861 385.9 905.704C385.999 905.833 386.084 905.945 386.157 906.04C386.316 906.243 386.497 906.475 386.703 906.738C390.994 912.226 395.317 917.688 399.793 923.028C408.685 933.635 418.129 943.847 428.675 952.84C428.714 952.873 428.772 952.921 428.846 952.981C428.959 953.073 429.109 953.194 429.286 953.335C429.373 953.405 429.466 953.479 429.564 953.557C429.811 953.753 430.089 953.974 430.38 954.205L430.431 954.246L430.456 954.266L430.466 954.273L430.466 954.274C432.395 955.804 434.779 957.696 431.954 955.601C433.047 956.412 434.143 957.217 435.255 958.002C438.026 959.961 440.87 961.82 443.785 963.56C446.7 965.302 449.688 966.93 452.742 968.419C452.666 968.382 454.366 969.146 455.492 969.666C456.757 970.142 459.04 971.039 458.79 970.951C463.151 972.492 467.607 973.761 472.12 974.778C473.619 975.115 475.125 975.423 476.635 975.707C476.368 975.656 478.935 976.069 480.333 976.309C481.72 976.454 484.447 976.773 484.167 976.748C486.09 976.921 488.018 977.056 489.947 977.162C493.825 977.378 497.705 977.463 501.589 977.449C517.654 977.394 533.651 975.623 549.585 973.728C551.848 973.458 554.112 973.187 556.373 972.909C556.413 972.904 556.534 972.889 556.713 972.865L557.328 972.785L557.365 972.781C558.973 972.571 561.819 972.2 560.546 972.385C563.809 971.92 567.066 971.414 570.309 970.829C577.667 969.505 584.98 967.815 592.062 965.399C592.291 965.32 592.913 965.085 593.606 964.823C595.005 964.293 596.695 963.653 596.044 963.97C596.996 963.534 597.94 963.075 598.871 962.606C602.118 960.977 605.255 959.142 608.28 957.134C608.343 957.092 608.632 956.885 609.021 956.607L609.023 956.605C610.131 955.812 612.042 954.446 611.801 954.684C612.498 954.113 613.185 953.527 613.866 952.945C616.61 950.6 619.242 948.121 621.79 945.565C627.439 939.905 632.634 933.809 637.631 927.571C638.22 926.837 638.803 926.098 639.386 925.359C639.702 924.959 640.018 924.559 640.334 924.159C640.668 923.74 640.936 923.403 641.15 923.136C641.376 922.833 641.681 922.428 642.081 921.898C644.304 918.955 646.522 916.013 648.706 913.042C657.439 901.158 665.765 888.977 673.673 876.53C690.081 850.7 704.684 823.726 717.365 795.878C719.045 792.186 720.694 788.481 722.307 784.76C722.328 784.711 722.431 784.468 722.578 784.123C723.161 782.748 724.432 779.753 723.932 780.962C724.33 780.005 724.725 779.047 725.117 778.088C727.916 771.267 730.599 764.396 733.168 757.485C738.434 743.316 743.215 728.967 747.501 714.471C756.181 685.116 762.763 655.182 767.297 624.91C769.228 612.035 784.857 606.135 795.927 608.655C808.212 611.454 813.227 623.35 812.469 634.618C813.59 632.684 814.67 630.727 815.709 628.749C816.663 626.931 817.583 625.093 818.47 623.241C818.589 622.992 818.985 622.091 819.423 621.096C820.355 618.976 821.475 616.426 820.515 618.825C822.261 614.472 823.85 610.06 825.271 605.591C828.92 594.132 831.539 582.363 833.455 570.497C833.498 570.233 833.655 569.122 833.83 567.877C834.195 565.288 834.642 562.118 834.32 564.758C834.613 562.363 834.891 559.967 835.144 557.568C835.82 551.162 836.341 544.743 836.765 538.317C836.84 537.177 836.917 536.035 836.994 534.893C837.69 524.571 838.392 514.145 837.868 503.828C837.806 502.567 837.717 501.308 837.602 500.051C837.571 500.014 837.45 499.383 837.239 498.158C837.216 498.051 837.192 497.944 837.168 497.838C837.083 497.836 836.998 497.835 836.913 497.834C834.188 497.775 831.488 497.94 828.776 498.105L828.775 498.105L828.748 498.107C828.374 498.129 828 498.152 827.626 498.174C826.902 498.217 826.441 498.23 826.164 498.226C825.853 498.317 825.359 498.446 824.608 498.622C823.8 498.811 822.993 498.993 822.186 499.174L822.184 499.175L822.182 499.175L822.18 499.176L822.178 499.176L822.176 499.177L822.175 499.177C819.964 499.675 817.76 500.171 815.577 500.82C815.356 500.886 814.564 501.163 813.615 501.496L813.608 501.498L813.607 501.498C811.926 502.088 809.758 502.848 809.406 502.907ZM263.99 458.367C263.945 458.684 263.94 458.722 263.958 458.603C263.984 458.428 264.058 457.915 264.121 457.459C264.06 457.882 264.018 458.175 263.99 458.367ZM141.95 373.075C147.523 352.608 154.232 332.469 162.181 312.8C162.177 312.81 164.539 307.059 163.718 308.997C164.696 306.684 165.709 304.384 166.727 302.088C168.795 297.42 170.931 292.782 173.132 288.176C177.704 278.609 182.569 269.183 187.708 259.91C192.543 251.186 197.575 242.552 202.997 234.178C205.171 230.821 207.411 227.506 209.745 224.257C209.919 224.014 210.582 223.155 211.284 222.245L211.285 222.244L211.286 222.243L211.286 222.242L211.286 222.242C212.743 220.353 214.366 218.249 212.138 220.983L212.557 220.469L212.558 220.467L212.559 220.467C213.677 219.093 214.795 217.719 215.95 216.374C218.955 212.876 222.111 209.504 225.452 206.324C226.867 204.976 228.314 203.658 229.798 202.385C229.997 202.215 230.704 201.69 231.389 201.182L231.39 201.181L231.39 201.181L231.391 201.18C232.728 200.188 233.974 199.264 231.159 201.184L231.576 200.899L231.576 200.899C235.171 198.447 238.703 196.037 242.579 194.023C242.769 193.924 243.363 193.655 244.008 193.362C245.15 192.844 246.452 192.254 245.943 192.414C247.745 191.757 249.565 191.167 251.408 190.616C263.064 187.142 271.591 174.124 267.663 161.988C263.846 150.194 251.531 142.01 239.035 145.735C196.733 158.342 170.533 195.709 149.82 232.306C127.003 272.619 109.235 316.013 97.0675 360.701C93.8714 372.436 101.043 386.533 113.322 389.329C125.593 392.123 138.528 385.645 141.95 373.075Z" />
</svg>
