<svg height="4.48in" viewBox="0 0 322.48 322.48" width="4.48in" xmlns="http://www.w3.org/2000/svg"><path d="m.75.75h320.98v320.98h-320.98z" fill="#231f20"/><path d="m.75.75h32.1v32.1h-32.1z" fill="none" stroke="#58595b" stroke-width="1.5"/><path d="m32.85.75h32.1v32.1h-32.1z" fill="none" stroke="#58595b" stroke-width="1.5"/><path d="m64.95.75h32.1v32.1h-32.1z" fill="none" stroke="#58595b" stroke-width="1.5"/><path d="m97.04.75h32.1v32.1h-32.1z" fill="none" stroke="#58595b" stroke-width="1.5"/><path d="m129.14.75h32.1v32.1h-32.1z" fill="none" stroke="#58595b" stroke-width="1.5"/><path d="m161.24.75h32.1v32.1h-32.1z" fill="none" stroke="#58595b" stroke-width="1.5"/><path d="m193.34.75h32.1v32.1h-32.1z" fill="none" stroke="#58595b" stroke-width="1.5"/><path d="m225.44.75h32.1v32.1h-32.1z" fill="none" stroke="#58595b" stroke-width="1.5"/><path d="m257.54.75h32.1v32.1h-32.1z" fill="none" stroke="#58595b" stroke-width="1.5"/><path d="m289.64.75h32.1v32.1h-32.1z" fill="none" stroke="#58595b" stroke-width="1.5"/><path d="m.75 32.85h32.1v32.1h-32.1z" fill="none" stroke="#58595b" stroke-width="1.5"/><path d="m32.85 32.85h32.1v32.1h-32.1z" fill="none" stroke="#58595b" stroke-width="1.5"/><path d="m64.95 32.85h32.1v32.1h-32.1z" fill="none" stroke="#58595b" stroke-width="1.5"/><path d="m97.04 32.85h32.1v32.1h-32.1z" fill="none" stroke="#58595b" stroke-width="1.5"/><path d="m129.14 32.85h32.1v32.1h-32.1z" fill="none" stroke="#58595b" stroke-width="1.5"/><path d="m161.24 32.85h32.1v32.1h-32.1z" fill="none" stroke="#58595b" stroke-width="1.5"/><path d="m193.34 32.85h32.1v32.1h-32.1z" fill="none" stroke="#58595b" stroke-width="1.5"/><path d="m225.44 32.85h32.1v32.1h-32.1z" fill="none" stroke="#58595b" stroke-width="1.5"/><path d="m257.54 32.85h32.1v32.1h-32.1z" fill="none" stroke="#58595b" stroke-width="1.5"/><path d="m289.64 32.85h32.1v32.1h-32.1z" fill="none" stroke="#58595b" stroke-width="1.5"/><path d="m.75 64.95h32.1v32.1h-32.1z" fill="none" stroke="#58595b" stroke-width="1.5"/><path d="m32.85 64.95h32.1v32.1h-32.1z" fill="none" stroke="#58595b" stroke-width="1.5"/><path d="m64.95 64.95h32.1v32.1h-32.1z" fill="none" stroke="#58595b" stroke-width="1.5"/><path d="m97.04 64.95h32.1v32.1h-32.1z" fill="none" stroke="#58595b" stroke-width="1.5"/><path d="m129.14 64.95h32.1v32.1h-32.1z" fill="none" stroke="#58595b" stroke-width="1.5"/><path d="m161.24 64.95h32.1v32.1h-32.1z" fill="none" stroke="#58595b" stroke-width="1.5"/><path d="m193.34 64.95h32.1v32.1h-32.1z" fill="none" stroke="#58595b" stroke-width="1.5"/><path d="m225.44 64.95h32.1v32.1h-32.1z" fill="none" stroke="#58595b" stroke-width="1.5"/><path d="m257.54 64.95h32.1v32.1h-32.1z" fill="none" stroke="#58595b" stroke-width="1.5"/><path d="m289.64 64.95h32.1v32.1h-32.1z" fill="none" stroke="#58595b" stroke-width="1.5"/><path d="m.75 97.05h32.1v32.1h-32.1z" fill="none" stroke="#58595b" stroke-width="1.5"/><path d="m32.85 97.05h32.1v32.1h-32.1z" fill="none" stroke="#58595b" stroke-width="1.5"/><path d="m64.95 97.05h32.1v32.1h-32.1z" fill="none" stroke="#58595b" stroke-width="1.5"/><path d="m97.04 97.05h32.1v32.1h-32.1z" fill="none" stroke="#58595b" stroke-width="1.5"/><path d="m129.14 97.05h32.1v32.1h-32.1z" fill="none" stroke="#58595b" stroke-width="1.5"/><path d="m161.24 97.05h32.1v32.1h-32.1z" fill="none" stroke="#58595b" stroke-width="1.5"/><path d="m193.34 97.05h32.1v32.1h-32.1z" fill="none" stroke="#58595b" stroke-width="1.5"/><path d="m225.44 97.05h32.1v32.1h-32.1z" fill="#fd0" stroke="#6d6e71"/><g fill="none" stroke="#58595b" stroke-width="1.5"><path d="m257.54 97.05h32.1v32.1h-32.1z"/><path d="m289.64 97.05h32.1v32.1h-32.1z"/><path d="m.75 129.14h32.1v32.1h-32.1z"/><path d="m32.85 129.14h32.1v32.1h-32.1z"/><path d="m64.95 129.14h32.1v32.1h-32.1z"/><path d="m97.04 129.14h32.1v32.1h-32.1z"/><path d="m129.14 129.14h32.1v32.1h-32.1z"/><path d="m161.24 129.14h32.1v32.1h-32.1z"/><path d="m193.34 129.14h32.1v32.1h-32.1z"/><path d="m225.44 129.14h32.1v32.1h-32.1z"/><path d="m257.54 129.14h32.1v32.1h-32.1z"/><path d="m289.64 129.14h32.1v32.1h-32.1z"/><path d="m.75 161.24h32.1v32.1h-32.1z"/><path d="m32.85 161.24h32.1v32.1h-32.1z"/><path d="m64.95 161.24h32.1v32.1h-32.1z"/><path d="m97.04 161.24h32.1v32.1h-32.1z"/><path d="m129.14 161.24h32.1v32.1h-32.1z"/><path d="m161.24 161.24h32.1v32.1h-32.1z"/><path d="m193.34 161.24h32.1v32.1h-32.1z"/><path d="m225.44 161.24h32.1v32.1h-32.1z"/><path d="m257.54 161.24h32.1v32.1h-32.1z"/><path d="m289.64 161.24h32.1v32.1h-32.1z"/><path d="m.75 193.34h32.1v32.1h-32.1z"/><path d="m32.85 193.34h32.1v32.1h-32.1z"/><path d="m64.95 193.34h32.1v32.1h-32.1z"/><path d="m97.04 193.34h32.1v32.1h-32.1z"/><path d="m129.14 193.34h32.1v32.1h-32.1z"/><path d="m161.24 193.34h32.1v32.1h-32.1z"/><path d="m193.34 193.34h32.1v32.1h-32.1z"/><path d="m225.44 193.34h32.1v32.1h-32.1z"/><path d="m257.54 193.34h32.1v32.1h-32.1z"/><path d="m289.64 193.34h32.1v32.1h-32.1z"/><path d="m.75 225.44h32.1v32.1h-32.1z"/><path d="m32.85 225.44h32.1v32.1h-32.1z"/><path d="m64.95 225.44h32.1v32.1h-32.1z"/><path d="m97.04 225.44h32.1v32.1h-32.1z"/><path d="m129.14 225.44h32.1v32.1h-32.1z"/><path d="m161.24 225.44h32.1v32.1h-32.1z"/><path d="m193.34 225.44h32.1v32.1h-32.1z"/><path d="m225.44 225.44h32.1v32.1h-32.1z"/><path d="m257.54 225.44h32.1v32.1h-32.1z"/><path d="m289.64 225.44h32.1v32.1h-32.1z"/><path d="m.75 257.54h32.1v32.1h-32.1z"/><path d="m32.85 257.54h32.1v32.1h-32.1z"/><path d="m64.95 257.54h32.1v32.1h-32.1z"/><path d="m97.04 257.54h32.1v32.1h-32.1z"/><path d="m129.14 257.54h32.1v32.1h-32.1z"/><path d="m161.24 257.54h32.1v32.1h-32.1z"/><path d="m193.34 257.54h32.1v32.1h-32.1z"/><path d="m225.44 257.54h32.1v32.1h-32.1z"/><path d="m257.54 257.54h32.1v32.1h-32.1z"/><path d="m289.64 257.54h32.1v32.1h-32.1z"/><path d="m.75 289.64h32.1v32.1h-32.1z"/><path d="m32.85 289.64h32.1v32.1h-32.1z"/><path d="m64.95 289.64h32.1v32.1h-32.1z"/><path d="m97.04 289.64h32.1v32.1h-32.1z"/><path d="m129.14 289.64h32.1v32.1h-32.1z"/><path d="m161.24 289.64h32.1v32.1h-32.1z"/><path d="m193.34 289.64h32.1v32.1h-32.1z"/><path d="m225.44 289.64h32.1v32.1h-32.1z"/><path d="m257.54 289.64h32.1v32.1h-32.1z"/></g><path d="m289.64 289.64h32.1v32.1h-32.1z" fill="#231f20" stroke="#6d6e71"/><path d="m13.2 284.61v-21.61h6.19v21.57h-6.19z" fill="#fff" transform="translate(.25 .25)"/><path d="m54 276.52v-13.52h5.71v21.57h-5.71l-10.24-13.57v13.58h-5.76v-21.58h5.71z" fill="#fff" transform="translate(.25 .25)"/><path d="m68.56 263h6.76l5.33 14.91 5.48-14.91h6.72l-9 21.57h-6.5z" fill="#fff" transform="translate(.25 .25)"/><path d="m12.4 230.66a16.31 16.31 0 0 1 3.78-.44 16.12 16.12 0 0 1 3.71.41 11.57 11.57 0 0 1 3.21 1.27 7.59 7.59 0 0 1 2.24 2.1 4.6 4.6 0 0 1 .86 2.73v9.23a4.65 4.65 0 0 1 -.86 2.76 7.18 7.18 0 0 1 -2.25 2 10.79 10.79 0 0 1 -3.2 1.28 16 16 0 0 1 -3.71.44 19.38 19.38 0 0 1 -4.95-.6 15.25 15.25 0 0 1 -4.23-1.73l2-4a12.85 12.85 0 0 0 3.71 1.08 22.07 22.07 0 0 0 3.36.29 7.64 7.64 0 0 0 3.39-.63 2.09 2.09 0 0 0 1.24-2v-1.11a2.9 2.9 0 0 1 -1 .63 5.49 5.49 0 0 1 -1.33.44 10.31 10.31 0 0 1 -1.52.29 13 13 0 0 1 -1.55.09 13.72 13.72 0 0 1 -3.74-.48 8.15 8.15 0 0 1 -2.85-1.36 6.58 6.58 0 0 1 -1.87-2.19 6.24 6.24 0 0 1 -.67-2.89v-1.59a4.59 4.59 0 0 1 .83-2.68 6.86 6.86 0 0 1 2.22-2 12.11 12.11 0 0 1 3.18-1.34zm7.6 7.62v-.86a1.66 1.66 0 0 0 -.32-1 2.58 2.58 0 0 0 -.86-.7 6.88 6.88 0 0 0 -1.21-.38 7.17 7.17 0 0 0 -1.4-.13 7.36 7.36 0 0 0 -1.43.13 3.86 3.86 0 0 0 -1.21.41 2.59 2.59 0 0 0 -.86.7 1.62 1.62 0 0 0 -.32 1v.86a1.64 1.64 0 0 0 .35 1 2.29 2.29 0 0 0 .89.73 4.68 4.68 0 0 0 1.24.41 7.29 7.29 0 0 0 1.43.16 6.63 6.63 0 0 0 1.36-.13 4.69 4.69 0 0 0 1.17-.41 2.91 2.91 0 0 0 .82-.73 1.72 1.72 0 0 0 .35-1.06z" fill="#fd0" transform="translate(.25 .25)"/><path d="m45.15 230.66a16.31 16.31 0 0 1 3.78-.44 16.12 16.12 0 0 1 3.71.41 11.57 11.57 0 0 1 3.21 1.27 7.59 7.59 0 0 1 2.24 2.1 4.6 4.6 0 0 1 .86 2.73v9.23a4.65 4.65 0 0 1 -.86 2.76 7.18 7.18 0 0 1 -2.25 2 10.79 10.79 0 0 1 -3.2 1.28 16 16 0 0 1 -3.71.44 19.38 19.38 0 0 1 -4.95-.6 15.25 15.25 0 0 1 -4.22-1.71l2-4a12.85 12.85 0 0 0 3.71 1.08 22.07 22.07 0 0 0 3.36.29 7.64 7.64 0 0 0 3.39-.63 2.09 2.09 0 0 0 1.24-2v-1.11a2.9 2.9 0 0 1 -1 .63 5.49 5.49 0 0 1 -1.33.44 10.31 10.31 0 0 1 -1.52.29 13 13 0 0 1 -1.55.09 13.72 13.72 0 0 1 -3.74-.48 8.15 8.15 0 0 1 -2.85-1.36 6.58 6.58 0 0 1 -1.87-2.19 6.24 6.24 0 0 1 -.67-2.89v-1.59a4.59 4.59 0 0 1 .86-2.73 6.86 6.86 0 0 1 2.22-2 12.11 12.11 0 0 1 3.14-1.31zm7.55 7.61v-.86a1.66 1.66 0 0 0 -.32-1 2.58 2.58 0 0 0 -.86-.7 6.88 6.88 0 0 0 -1.21-.38 7.17 7.17 0 0 0 -1.4-.13 7.36 7.36 0 0 0 -1.43.13 3.86 3.86 0 0 0 -1.21.41 2.59 2.59 0 0 0 -.86.7 1.62 1.62 0 0 0 -.32 1v.86a1.64 1.64 0 0 0 .35 1 2.29 2.29 0 0 0 .89.73 4.68 4.68 0 0 0 1.24.41 7.29 7.29 0 0 0 1.43.16 6.63 6.63 0 0 0 1.36-.13 4.69 4.69 0 0 0 1.17-.41 2.91 2.91 0 0 0 .82-.73 1.72 1.72 0 0 0 .35-1.05z" fill="#fd0" transform="translate(.25 .25)"/><path d="m79.46 234v2a3.24 3.24 0 0 1 -.41 1.68 3.89 3.89 0 0 1 -1.14 1.21 5.87 5.87 0 0 1 -1.65.73 8.12 8.12 0 0 1 -2 .25 8.68 8.68 0 0 1 -2.09-.22 4.83 4.83 0 0 1 -1.68-.7 3.29 3.29 0 0 1 -1.08-1.21 3.38 3.38 0 0 1 -.41-1.74v-2a3.16 3.16 0 0 1 .44-1.68 3.55 3.55 0 0 1 1.14-1.17 4.85 4.85 0 0 1 1.68-.73 8.29 8.29 0 0 1 2-.22 8 8 0 0 1 1.93.25 5.83 5.83 0 0 1 1.65.73 3.82 3.82 0 0 1 1.16 1.23 3.06 3.06 0 0 1 .46 1.59zm-3.55 18.08h-5l14.31-21.57h4.78zm-2.63-17.48v.89a.64.64 0 0 0 .25.67 1.64 1.64 0 0 0 .76.13 1.34 1.34 0 0 0 .73-.22.73.73 0 0 0 .35-.6v-1a.53.53 0 0 0 -.37-.47 1.82 1.82 0 0 0 -.73-.13 1.39 1.39 0 0 0 -.67.19.59.59 0 0 0 -.32.54zm18.72 11.4v2.67a3.92 3.92 0 0 1 -.35 1.65 3.15 3.15 0 0 1 -1 1.17 6 6 0 0 1 -1.59.67 8 8 0 0 1 -2 .22 7.2 7.2 0 0 1 -1.81-.22 5.84 5.84 0 0 1 -1.59-.67 3.28 3.28 0 0 1 -1.11-1 2.53 2.53 0 0 1 -.55-1.59v-2.79a3.52 3.52 0 0 1 .38-1.65 3 3 0 0 1 1-1.11 6.11 6.11 0 0 1 1.59-.67 7.89 7.89 0 0 1 2-.22 8.76 8.76 0 0 1 1.84.19 5.28 5.28 0 0 1 1.59.6 3.5 3.5 0 0 1 1.14 1.08 2.92 2.92 0 0 1 .46 1.67zm-6 1.11v.89a.7.7 0 0 0 .29.63 1 1 0 0 0 .67.22 1.29 1.29 0 0 0 .7-.22.79.79 0 0 0 .35-.67v-.96a.87.87 0 0 0 -1-.92 1.19 1.19 0 0 0 -.7.25.91.91 0 0 0 -.31.73z" fill="#fd0" transform="translate(.25 .25)"/><path d="m109.7 284.61v-21.61h6.19v21.57h-6.19z" fill="#fff" transform="translate(.25 .25)"/><path d="m173.7 284.61v-21.61h6.19v21.57h-6.19z" fill="#fff" transform="translate(.25 .25)"/><path d="m218.84 268.91v.57a2.88 2.88 0 0 1 -.22 1.11 4.12 4.12 0 0 1 -.63 1.11 4.58 4.58 0 0 1 -1 1 4.92 4.92 0 0 1 -1.36.7 6.92 6.92 0 0 1 3 1.84 4.26 4.26 0 0 1 1 2.89v1a4.72 4.72 0 0 1 -.57 2.35 5.27 5.27 0 0 1 -1.62 1.74 7.52 7.52 0 0 1 -2.57 1 13.23 13.23 0 0 1 -3.33.38h-12v-21.6h11.29a11.94 11.94 0 0 1 3.3.41 7.89 7.89 0 0 1 2.51 1.21 5.61 5.61 0 0 1 1.62 1.87 5 5 0 0 1 .58 2.42zm-13.07-1.3v4h4.85a2.47 2.47 0 0 0 1.52-.41 1.63 1.63 0 0 0 .54-1.33v-.57a1.29 1.29 0 0 0 -.79-1.33 5.39 5.39 0 0 0 -2-.32h-4.09zm7.58 10.75v-1a1.28 1.28 0 0 0 -.79-1.24 4.19 4.19 0 0 0 -1.78-.38h-5v4.28h4.79q.38 0 1.08-.06a3 3 0 0 0 .89-.22 1.46 1.46 0 0 0 .6-.54 1.54 1.54 0 0 0 .21-.84z" fill="#fff" transform="translate(.25 .25)"/><path d="m232.41 263h6.19v16.65h12.09v4.92h-18.28z" fill="#fff" transform="translate(.25 .25)"/><path d="m280.09 276h-9.33v3.65h12.05v4.92h-18.23v-21.57h17.61v5h-11.42v3.33h9.33v4.67z" fill="#fff" transform="translate(.25 .25)"/><path d="m143.63 271.06a14.27 14.27 0 0 0 2.06.35 23.91 23.91 0 0 1 3.43.63 11 11 0 0 1 2.79 1.17 6.31 6.31 0 0 1 1.9 1.9 5.16 5.16 0 0 1 .7 2.79 5.79 5.79 0 0 1 -.76 3 6.47 6.47 0 0 1 -2.06 2.16 9.12 9.12 0 0 1 -3 1.33 14.86 14.86 0 0 1 -3.62.44 15.86 15.86 0 0 1 -2.67-.22 22.67 22.67 0 0 1 -2.76-.67 16.18 16.18 0 0 1 -2.57-1 9.72 9.72 0 0 1 -2.13-1.4l2.38-4a18.38 18.38 0 0 0 3.68 1.75 12 12 0 0 0 4.06.67 7.14 7.14 0 0 0 1.59-.16 2.83 2.83 0 0 0 .89-.41 1 1 0 0 0 .41-.54 2.34 2.34 0 0 0 .09-.67 1.41 1.41 0 0 0 -.16-.63 1.35 1.35 0 0 0 -.63-.51 9.28 9.28 0 0 0 -1.33-.44 20.84 20.84 0 0 0 -2.22-.48 24.45 24.45 0 0 1 -3.71-.89 8.78 8.78 0 0 1 -2.57-1.27 5 5 0 0 1 -1.49-1.81 6.23 6.23 0 0 1 -.54-2.44 5.13 5.13 0 0 1 .76-3 7.62 7.62 0 0 1 2.13-2.16 10.05 10.05 0 0 1 3-1.3 13.36 13.36 0 0 1 3.36-.44q1.27 0 2.41.09a16.68 16.68 0 0 1 2.25.41 20.43 20.43 0 0 1 2.28.76 22.55 22.55 0 0 1 2.47 1.27l-2.19 4.38q-.89-.47-2.13-1-.7-.29-1.75-.6a9.57 9.57 0 0 0 -1.65-.32q-1.08-.06-1.68-.06a5.3 5.3 0 0 0 -1.4.16 2.89 2.89 0 0 0 -.86.41 1.53 1.53 0 0 0 -.48.6 1.62 1.62 0 0 0 -.13.67 1.14 1.14 0 0 0 .13.57 1 1 0 0 0 .51.48 4.46 4.46 0 0 0 1.21.43z" fill="#fff" transform="translate(.25 .25)"/></svg>