<svg height="300" width="300" xmlns="http://www.w3.org/2000/svg"><g transform="translate(0 -752.3621)"><path d="m150 1052.3621h-150v-149.99998-150h150 150v150 149.99998z" fill="#f7f7f7"/><path d="m10.5 1052.3621h-3.5v-3-3h-3.5-3.5v-3.5-3.5h3 3v-3.5-3.5h-3-3v-3.5-3.5h3 3v-3.5-3.5h-3-3v-3.5-3.5h3 3v-4-4h-3-3v-3-2.99998h3 3v-4-4h-3-3v-3.5-3.5h3 3v-3.5-3.5h-3-3v-3.5-3.5h3 3v-3.5-3.5h-3-3v-3.5-3.5h3 3v-3.5-3.5h-3-3v-3.5-3.5h3 3v-3.5-3.5h-3-3v-3.5-3.5h3 3v-3.5-3.5h-3-3v-3.5-3.5h3 3v-3.5-3.5h-3-3v-3.5-3.5h3 3v-3.5-3.5h-3-3v-3.5-3.5h3 3v-3.5-3.5h-3-3v-3.5-3.5h3 3v-3.5-3.5h-3-3v-3.5-3.5h3 3v-3.5-3.5h-3-3v-3.5-3.5h3 3v-3.5-3.5h-3-3v-3.5-3.5h3 3v-3.5-3.5h-3-3v-3.5-3.5h3 3v-3.5-3.5h-3-3v-3.5-3.5h3 3v-3.5-3.5h-3-3v-3.5-3.5h3 3v-3.5-3.5h-3-3v-3.5-3.5h3 3v-3.5-3.5h-3-3v-3.5-3.5h3.5 3.5v-3-3h3.5 3.5v3 3h3.5 3.5v-3-3h3.5 3.5v3 3h3.5 3.5v-3-3h3.5 3.5v3 3h3.5 3.5v-3-3h3.5 3.5v3 3h3.5 3.5v-3-3h3.5 3.5v3 3h3.5 3.5v-3-3h3.5 3.5v3 3h3.5 3.5v-3-3h3.5 3.5v3 3h3.5 3.5v-3-3h3.5 3.5v3 3h3.5 3.5v-3-3h3.5 3.5v3 3h3.5 3.5v-3-3h3.5 3.5v3 3h3.5 3.5v-3-3h3.5 3.5v3 3h3.5 3.5v-3-3h3.5 3.5v3 3h3.5 3.5v-3-3h3.5 3.5v3 3h3.5 3.5v-3-3h3.5 3.5v3 3h3.5 3.5v-3-3h3.5 3.5v3 3h3.5 3.5v-3-3h3.5 3.5v3 3h3.5 3.5v-3-3h4 4v3 3h3.5 3.5v-3-3h3.5 3.5v3 3h3.5 3.5v-3-3h3.5 3.5v3 3h3.5 3.5v-3-3h3.5 3.5v3 3h3.5 3.5v-3-3h3.5 3.5v3 3h2.5 2.5v3.5 3.5h-2.5-2.5v3.5 3.5h2.5 2.5v3.5 3.5h-2.5-2.5v3.5 3.5h2.5 2.5v3.5 3.5h-2.5-2.5v3.5 3.5h2.5 2.5v3.5 3.5h-2.5-2.5v3.5 3.5h2.5 2.5v3.5 3.5h-2.5-2.5v3.5 3.5h2.5 2.5v3.5 3.5h-2.5-2.5v3.5 3.5h2.5 2.5v3.5 3.5h-2.5-2.5v3.5 3.5h2.5 2.5v3.5 3.5h-2.5-2.5v3.5 3.5h2.5 2.5v3.5 3.5h-2.5-2.5v3.5 3.5h2.5 2.5v3.5 3.5h-2.5-2.5v3.5 3.5h2.5 2.5v3.5 3.5h-2.5-2.5v3.5 3.5h2.5 2.5v3.5 3.5h-2.5-2.5v3.5 3.5h2.5 2.5v3.5 3.5h-2.5-2.5v3.5 3.5h2.5 2.5v3.5 3.5h-2.5-2.5v3.5 3.5h2.5 2.5v3.5 3.5h-2.5-2.5v3.5 3.5h2.5 2.5v3.5 3.5h-2.5-2.5v3.5 3.5h2.5 2.5v3.5 3.5h-2.5-2.5v4 4h2.5 2.5v2.99998 3h-2.5-2.5v4 4h2.5 2.5v3.5 3.5h-2.5-2.5v3.5 3.5h2.5 2.5v3.5 3.5h-2.5-2.5v3.5 3.5h2.5 2.5v3.5 3.5h-2.5-2.5v3 3h-3.5-3.5v-3-3h-3.5-3.5v3 3h-3.5-3.5v-3-3h-3.5-3.5v3 3h-3.5-3.5v-3-3h-3.5-3.5v3 3h-3.5-3.5v-3-3h-4-4v3 3h-3-3v-3-3h-4-4v3 3h-3.5-3.5v-3-3h-3.5-3.5v3 3h-3.5-3.5v-3-3h-3.5-3.5v3 3h-3.5-3.5v-3-3h-3.5-3.5v3 3h-3.5-3.5v-3-3h-3.5-3.5v3 3h-3.5-3.5v-3-3h-3.5-3.5v3 3h-3.5-3.5v-3-3h-3.5-3.5v3 3h-3.5-3.5v-3-3h-3.5-3.5v3 3h-3.5-3.5v-3-3h-3.5-3.5v3 3h-3.5-3.5v-3-3h-3.5-3.5v3 3h-3.5-3.5v-3-3h-3.5-3.5v3 3h-3.5-3.5v-3-3h-3.5-3.5v3 3h-3.5-3.5v-3-3h-3.5-3.5v3 3h-3.5-3.5v-3-3h-3.5-3.5v3 3h-3.5-3.5v-3-3h-3.5-3.5v3 3h-3.5-3.5v-3-3h-3.5-3.5v3 3zm81-46h21.5v-39.49998-39.5h8 8v39.5 39.49998h21.5 21.5v-98.49998-98.5h-21.5-21.5v38.5 38.5h-8-8v-38.5-38.5h-21.5-21.5v98.5 98.49998zm118 0h21.5v-98.49998-98.5h-21.5-21.5v98.5 98.49998z" fill="#4e4e4e"/></g></svg>