<svg width="1024" height="1024" viewBox="0 0 1024 1024" fill="none" xmlns="http://www.w3.org/2000/svg">
<rect width="1024" height="1024" fill="#37AB2F"/>
<path fill-rule="evenodd" clip-rule="evenodd" d="M492.297 418.16C477.504 403.268 477.504 379.131 492.297 364.229C507.088 349.342 531.054 349.342 545.854 364.229L665.864 485.035C680.659 499.926 680.659 524.065 665.865 538.956L545.849 659.776C538.652 667.009 529.042 670.936 519.076 670.936C509.099 670.936 499.479 667.01 492.297 659.771C477.504 644.879 477.504 620.732 492.297 605.84L547.882 549.885L373.322 550.13C352.408 550.13 335.448 533.057 335.448 512C335.448 490.937 352.405 473.87 373.322 473.87L549.955 473.712L492.297 418.16ZM232.124 558.251C257.496 558.251 278.066 537.546 278.066 512C278.066 486.454 257.496 465.749 232.124 465.749C206.752 465.749 186.182 486.454 186.182 512C186.182 537.546 206.752 558.251 232.124 558.251ZM791.878 558.251C817.245 558.251 837.818 537.546 837.818 512C837.818 486.454 817.245 465.749 791.878 465.749C766.511 465.749 745.937 486.454 745.937 512C745.937 537.546 766.511 558.251 791.878 558.251Z" fill="white"/>
</svg>
